<svg id="Lag_1" data-name="Lag 1" xmlns="http://www.w3.org/2000/svg" width="1487" height="581" viewBox="0 0 1487 581"><defs><style>.cls-1{fill:#fff;}.cls-2{opacity:0.9;}.cls-3{fill:#fef6f3;}.cls-4{fill:#fef5f1;}.cls-5{fill:#fad1bf;}.cls-6{fill:#fbd7c8;}.cls-7{fill:#fbd3c2;}.cls-8{fill:#fbdacc;}.cls-9{fill:#fce5db;}.cls-10{fill:#fce1d6;}.cls-11{fill:#fde9e1;}.cls-12{fill:#fdf0ea;}.cls-13{fill:#fdefe9;}.cls-14{fill:#fdf7f5;}.cls-15{fill:#fcf1ed;}.cls-16{fill:#fdf6f3;}.cls-17{fill:#f6d6cb;}.cls-18{fill:#f7dcd2;}.cls-19{fill:#f7d8ce;}.cls-20{fill:#f8ded5;}.cls-21{fill:#fae8e2;}.cls-22{fill:#f9e5dd;}.cls-23{fill:#fbece7;}.cls-24{fill:#fcf1ee;}.cls-25{fill:#91817b;}</style></defs><title>ommig</title><path class="cls-1" d="M28.46,400.51c21-11.63,40.21-26.64,61.57-38.28,49.28-26.86,99.91-51,154.32-66C303.52,279.87,367,270.88,428,265.4c64.15-5.77,128.55-8.92,192.92-8.78,61.31.14,121.65.21,182.65,7.79,77.13,9.58,155.17,17,231.94,29.06,86.53,13.64,173.79,21.34,260.84,31.28,57.12,6.53,113.78,7.81,171.16,7.81"/><g class="cls-2"><g class="cls-2"><path class="cls-3" d="M155.09,351.2l-7.88,2.07a33.23,33.23,0,0,1,3.95,14.41c-5.22,10.22,21.08-1.65,50.74-10.79-1.15-4.66-4.77-8-12.17-9.24S171.16,347.15,155.09,351.2Z"/><path class="cls-3" d="M60.16,370.41a151.92,151.92,0,0,0,22.91-13.85c3.32-2.33,6.26-4.46,9.29-6.67s6.08-4.29,9.35-6.33c-9.5.05-17.9-1.15-24.77-4.51-8.57-2.7-19.49-3-30.95-2-5,5.17-11.89,12.14-18.74,16,2.34-.19,3.55-.32,4.65-1S34,350.29,36.08,348L24.17,361.49c2.68,1.92,9.44.43,17.53-3.15a171.31,171.31,0,0,0,25-14.07c-4,3.93-8.48,8.68-12.88,13.53s-8.72,9.78-12.56,14.11c3.65.08,7.48,0,11.42-.29,4.09-1.84,8.27-3.93,11.76-5.91Z"/><path class="cls-3" d="M282.89,395.21c-1.63-.39-3.19-.75-4.71-1.18-1.13,1-2.31,2-3.53,3l-1.86,1.48L271.05,400c-1.17,1-2.36,1.92-3.56,2.87s-2.43,1.88-3.65,2.86c2.48.58,5,1.28,7.41,1.93l3.68,1,3.95,1c2.53-2,5.62-4.14,8.85-6.15.67.95,1.36,1.9,2.1,2.83-.18,1.58-.67,3.21-3.16,5.19l.6.13c3,.74,6.05,1.47,9.12,2.15-1.16-1.2-2.26-2.41-3.34-3.62,4.18-.64,8.67-.53,12.1-1.1s6-1.65,6.43-4.67C308.45,399.56,294.68,397.89,282.89,395.21Z"/><path class="cls-4" d="M431.6,387.28a30.44,30.44,0,0,1-.19-17.8c-11,4.26-28.18-2.86-38.92,1.73,2.09-8-1.6-14.2-8.81-19.2s-17.83-8.72-29.42-11.76-24.09-5.32-35.05-7.71c-5.47-1.19-10.56-2.43-14.94-3.77a61.15,61.15,0,0,1-6-2.21,27,27,0,0,1-4.72-2.52c-13.28-7-31.82-9.46-50.94-10.22s-39.1.59-56-.65c-2.39,2.42-2.8,4.72-4,7.09a12.65,12.65,0,0,1-2.82,3.63,28.66,28.66,0,0,1-6.1,4c8.23.52,16.36-1.72,24.7-6.78,1.58-1,3.17-1.93,4.73-3.07-1.57,1.14-3.15,2.14-4.73,3.07a101.86,101.86,0,0,1-9.39,5.11c-3.26,1.63-6.72,3.21-10.51,5,2.77-.64,4.93-.36,4.91,1.58a12,12,0,0,1-4.14,3.94c15.36.89,29.91,2.88,41.41,7.21a61.17,61.17,0,0,1,8,3.67,43.31,43.31,0,0,1,6.73,4.66,30.37,30.37,0,0,1,8.9,12.39l7.29-.64c3.69-.33,7.07-.37,10.17-.4,1.51,0,3.14,0,4.6.08s2.89.15,4.23.25a50.37,50.37,0,0,1,13.06,2.59c6.75,2.5,9.74,6.36,10.19,11.12,17.81-2.6,37.33-4.22,51-2.61,22.58,4.39,42.93,11.87,63.53,19.68,3.25-1.47,6.46-3,9.55-4.53s6.11-3.11,8.89-4.8C428.29,386,429.93,386.67,431.6,387.28Z"/><path class="cls-5" d="M1467.53,313.7c-3.8-16-23.26-32.83-50-46.3A265.87,265.87,0,0,0,1373,250a279.35,279.35,0,0,0-49.87-9.86l-56.08-9.47-57.75-9.45c-38.45-6.24-76.91-12.48-115.71-19.37,4.65,7.68,4.35,15.3-1.58,21.59-3,3.14-7.35,6-13.21,8.27a90.5,90.5,0,0,1-22.06,5.13,34.49,34.49,0,0,1-7.26,0,67.58,67.58,0,0,1-8.12-1.3c-5.76-1.21-11.75-3-17.39-4.64s-11-3.25-15.4-4.12-8-1.09-10.13,0c-22.22,2.71-36.37,7.14-51.5,10.9s-31.22,6.92-57,7.43c8.23,5.43,8.18,15.41,18.5,17.21a177.07,177.07,0,0,0,46.37,14.55,207.46,207.46,0,0,0,59,1.15c6.25-.74,14.9,4.11,18.3,9.12s1.59,10.15-12.81,10.1a218.87,218.87,0,0,0,46.22,7.22c14,.8,26.86.8,40.27,2.29,19.08,1.55,30,4.08,36.07,7.46s7.2,7.57,6.67,12.22c-1.06,9.3-8.91,20.44,2.52,30.4,3.49,5.08,8.92,9,15.67,11.93,27.28-3.8,53.57-9,79.59-14.23,13-2.6,26-5.21,38.93-7.61l9.76-1.79,10-1.73,19.87-3.51c6.22-1.1,13.57.89,21,2.8s14.83,3.75,21,2.44a336.25,336.25,0,0,0,35.89-4.4,312,312,0,0,0,33.8-7.85C1456.61,326.9,1470.28,319.76,1467.53,313.7Z"/><path class="cls-6" d="M771,167.24q2.91-.62,5.88-1.16c2-.35,4-.65,6-.94,4.06-.59,8.21-1.08,12.45-1.41s8.54-.62,12.93-.72c2.19-.06,4.4-.11,6.62-.13l6-.09-4.16-1.64-4.8-1.69c-3.23-1.12-6.48-2.28-9.69-3.36l-9.66-3.25-9.61-3.12c-12.8-4.09-25.55-8-38.14-11.51-3.55,1.39-7.12,2.83-10.64,4.26s-7,2.86-10.18,4.36C743.2,150.26,759.86,156.72,771,167.24Z"/><path class="cls-6" d="M1098.6,367.54c4.31-7.21,1.21-11.78-4.75-16.39s-14.78-9.3-21.92-16.75a157.72,157.72,0,0,1-26.1,1.17q-6-.3-11.44-1.13c-1.81-.27-3.6-.59-5.33-.95s-3.3-.74-4.89-1.18a71.78,71.78,0,0,1-32.11-18.46c-2.13,3.57-16.32-1.2-22.46-.36,2.12-3.6-10-11.91,2.32-13.58-12.33,1.66-24.56-6.59-32.83-2.08-18.44-7.34,16.55-9,4.3-17.22-35.11,6.64-65.47.46-83.76-9.75S835.3,246.59,848.71,238C859.06,229.8,877.58,227,890,215.22s45.57-.1,70.65,6.52C954.47,212.56,919,204.28,940,198c20-2.82,42.5-6.73,57-12.8-27.1-2.76-56.9-3.26-83.17-4.18s-49.07-2.26-62.58-6.56c-10.34-3.86-20.41-7.75-30.35-11.67l-6,.09c-2.22,0-4.43.07-6.62.13-4.39.1-8.69.37-12.93.72s-8.39.82-12.45,1.41c-2,.29-4,.59-6,.94s-3.94.75-5.88,1.16c-11.11-10.52-27.77-17-47-20.4-7.92,3.6-14.6,7.43-18.09,11.62-4.62,3.57-3.79,6.35.24,8.72a39.94,39.94,0,0,0,8.21,3.31c3.38,1,7.31,2.06,11.49,3.06,16.78,4,38.19,8.53,46.24,15.63-18.29.54-32.63,3-43.51,6.51s-18.32,8.07-22.81,13.12c-9,10.12-6.19,22.18,5.13,33a168.55,168.55,0,0,0,25.7,17.86,365.8,365.8,0,0,0,34,16.7,166.76,166.76,0,0,0,24.83,5c2.27.28,4.54.49,6.9.66s4.77.28,7.17.31a92.25,92.25,0,0,0,14.24-.87c-6.21.91-24.89,3.49-20.79,6.25,33,12,45.53,30.08,90.8,30-2.08,3.63,2,6.34-10.32,8.18,24.7-3.67,8.18,15.41,32.79,11.77,10.07,11.81,3.87,32.61,36.06,34.58a94.78,94.78,0,0,1,21.9,2.52,333.5,333.5,0,0,1,36.75-3.29c3.2-.1,6.45-.14,9.75-.15h2.48l2.7.06,5.46.16c7.36.31,14.9.73,22.71,1.38a458.86,458.86,0,0,0,64.8.63C1108.56,372.38,1099.65,370.93,1098.6,367.54Z"/><path class="cls-7" d="M1151,356.89c-11.43-10-3.58-21.1-2.52-30.4.53-4.65-.62-8.84-6.67-12.22s-17-5.91-36.07-7.46c-13.41-1.49-26.32-1.49-40.27-2.29a218.87,218.87,0,0,1-46.22-7.22c14.4.05,16.21-5.09,12.81-10.1s-12-9.86-18.3-9.12a207.46,207.46,0,0,1-59-1.15,177.07,177.07,0,0,1-46.37-14.55c-10.32-1.8-10.27-11.78-18.5-17.21,25.81-.51,41.9-3.66,57-7.43s29.28-8.19,51.5-10.9c2.13-1.1,5.69-.88,10.13,0s9.76,2.45,15.4,4.12,11.63,3.43,17.39,4.64a67.58,67.58,0,0,0,8.12,1.3,34.49,34.49,0,0,0,7.26,0,90.5,90.5,0,0,0,22.06-5.13c5.86-2.32,10.24-5.13,13.21-8.27,5.93-6.29,6.23-13.91,1.58-21.59-13.77-2.43-27.54-5-41.41-7.64l-11.46-2.11c-3.87-.72-7.74-1.4-11.62-2.07-7.78-1.38-15.55-2.65-23.4-3.93q-4.29-.51-8.74-.94c-14.5,6.07-37,10-57,12.8-21,6.28,14.51,14.56,20.71,23.74-25.08-6.62-58.25-18.34-70.65-6.52s-31,14.58-41.31,22.76c-13.41,8.61-7.36,22.7,10.92,32.88s48.65,16.39,83.76,9.75c12.25,8.21-22.74,9.88-4.3,17.22,8.27-4.51,20.5,3.74,32.83,2.08-12.34,1.67-.2,10-2.32,13.58,6.14-.84,20.33,3.93,22.46.36a71.78,71.78,0,0,0,32.11,18.46q2.38.66,4.89,1.18c1.73.36,3.52.68,5.33.95q5.47.82,11.44,1.13a157.72,157.72,0,0,0,26.1-1.17c7.14,7.45,16,12.1,21.92,16.75s9.06,9.18,4.75,16.39c1.05,3.39,10,4.84,20.18,6.07,16.38-.95,32.32-2.61,47.89-4.79C1159.92,365.86,1154.49,362,1151,356.89Z"/><path class="cls-8" d="M952.23,372.29c-32.19-2-26-22.77-36.06-34.58-24.61,3.64-8.09-15.44-32.79-11.77,12.36-1.84,8.24-4.55,10.32-8.18-45.27.08-57.77-18-90.8-30-4.1-2.76,14.58-5.34,20.79-6.25a92.25,92.25,0,0,1-14.24.87q-3.6,0-7.17-.31c-2.36-.17-4.63-.38-6.9-.66a166.76,166.76,0,0,1-24.83-5,365.8,365.8,0,0,1-34-16.7,168.55,168.55,0,0,1-25.7-17.86c-11.32-10.86-14.12-22.92-5.13-33,4.49-5.05,11.93-9.61,22.81-13.12s25.22-6,43.51-6.51c-8.05-7.1-29.46-11.63-46.24-15.63-4.18-1-8.11-2-11.49-3.06a39.94,39.94,0,0,1-8.21-3.31c-4-2.37-4.86-5.15-.24-8.72,3.49-4.19,10.17-8,18.09-11.62-23.4-4.2-50.49-3.88-77.05-2-6.64.47-13.3,1-19.83,1.64l-20.29,2-39.38,4.2c-1.46,5.6.29,10,8.05,11.83,14.76,4.46,23.66,9.59,29.45,15s8.46,11.11,10.73,16.89,4.19,11.68,8.18,17.54,10.23,11.64,21.25,17.25c8.81,4.46,34.21,8.14,38.63,10.49,10.11,7.64,9.22,15.52,8.38,23.33s-1.64,15.66,8.18,23.37c-.86,1.92,7.24,1.59,15.84,1.69a89.8,89.8,0,0,1,12.22.7c3.49.52,6.06,1.41,6.65,3,5.3,5.56,6.11,12.09,8.59,17.83a19.53,19.53,0,0,0,5.67,7.85c2.8,2.26,6.72,4.16,12.53,5.48,4,1,7.69,2.12,11.27,3.23s6.94,2.35,10.16,3.56,6.22,2.54,9.11,3.84l2.13,1,2.32,1q2.31,1,4.52,2.1a181.36,181.36,0,0,1,29.56,17.61c16.45,12.13,27.71,25,40.82,37.51,35.74-5.61,67.15-14.87,102.46-19.92A94.78,94.78,0,0,0,952.23,372.29Z"/><path class="cls-9" d="M179.54,140.32c-18,7.46-34.08,14.17-49.2,20.33a316,316,0,0,1,51.32-6.58c3.86-.13,7.54-.24,11.19-.2s7.16.14,10.57.31c1.74.06,3.27.23,4.83.39s3.08.34,4.58.53c3,.38,5.91.78,8.71,1.29A148.26,148.26,0,0,1,275.29,177c2.39,1.62,10.54,1,21.65-.26s25.14-3.23,39.33-4.56c28.41-2.69,57.2-2.57,64.86,6.94-.68,2-2.34,3.92-4.82,5.76a48.55,48.55,0,0,1-9.7,5.32A135.87,135.87,0,0,1,373.06,195c-5.05,1.6-10.56,3-16.4,4.51,23.32,3.12,40.62,8.61,54.65,15s24.66,13.74,34.63,21.14c19.89,14.82,36.85,29.74,69.61,39.77s62.38,24.42,84.16,40.81a151.58,151.58,0,0,1,14.84,12.62q3.32,3.22,6.22,6.51t5.6,6.61c6.89,8.85,11.28,17.88,12.74,26.84.82,7.77,12.12,13.75,27.11,19.33s33.48,10.87,49.25,17.2c12.82-3.56,25.46-7,37.78-9.74-16.56-10.47-31.67-20.13-35.52-30.53-4.9-17.29-13.67-32-30.35-44.7-8.35-6.32-18.66-12.14-31.45-17.47-6.4-2.66-13.4-5.22-21.09-7.67-3.83-1.22-7.86-2.42-12-3.6s-8.41-2.31-12.89-3.44c-11.63-3.57-13.24-12.51-13.54-21.39s.71-17.7-6-21a604.28,604.28,0,0,1-64.25-42.41c-18.26-13.75-34.71-27.53-53.83-42.08-7.6-7.38-23.43-16-42.87-24-4.08.21-8.16.46-12.24.72l-12.48,1-25.13,2.2c-16.84,1.48-33.86,2.86-51.29,3.27C303.52,149,286.14,150.13,273,149a89.79,89.79,0,0,1-30.07-7.69c-4-1.67-7.67-3.38-11.53-4.84a55.25,55.25,0,0,0-12.5-3.18,56.62,56.62,0,0,0-16,.39,85.45,85.45,0,0,0-10.62,2.37c-2,.55-4,1.17-6.13,1.87S181.81,139.44,179.54,140.32Z"/><path class="cls-10" d="M761.78,324.86c-5.81-1.32-9.73-3.22-12.53-5.48a19.53,19.53,0,0,1-5.67-7.85c-2.48-5.74-3.29-12.27-8.59-17.83-.59-1.56-3.16-2.45-6.65-3a89.8,89.8,0,0,0-12.22-.7c-8.6-.1-16.7.23-15.84-1.69-9.82-7.71-9-15.54-8.18-23.37s1.73-15.69-8.38-23.33c-4.42-2.35-29.82-6-38.63-10.49-11-5.61-17.24-11.41-21.25-17.25s-5.93-11.74-8.18-17.54-4.95-11.51-10.73-16.89-14.69-10.52-29.45-15c-7.76-1.8-9.51-6.23-8.05-11.83l-.46.06c3.8-5.61-2.17-8.22-10.12-9.38a99,99,0,0,0-12.37-.82c-4,0-7.4.11-9.37.19a317.24,317.24,0,0,1-46.48-1.15c-12.92-1.3-24.91-3.25-40.86-4.79-6.12,0-12.23.26-18.33.55,19.44,8.07,35.27,16.66,42.87,24,19.12,14.55,35.57,28.33,53.83,42.08a604.28,604.28,0,0,0,64.25,42.41c6.69,3.25,5.67,12.07,6,21s1.91,17.82,13.54,21.39c4.48,1.13,8.72,2.26,12.89,3.44s8.21,2.38,12,3.6c7.69,2.45,14.69,5,21.09,7.67,12.79,5.33,23.1,11.15,31.45,17.47,16.68,12.66,25.45,27.41,30.35,44.7,3.85,10.4,19,20.06,35.52,30.53a278.34,278.34,0,0,1,30.5-5.31,16,16,0,0,1,4-.22,34,34,0,0,1,5,.82,57.59,57.59,0,0,1,9.6,3.29,75.6,75.6,0,0,1,10,5.28,364.41,364.41,0,0,0,59.25-4.73c-13.11-12.54-24.37-25.38-40.82-37.51a181.36,181.36,0,0,0-29.56-17.61q-2.2-1.07-4.52-2.1l-2.32-1-2.13-1c-2.89-1.3-5.9-2.62-9.11-3.84s-6.59-2.43-10.16-3.56S765.74,325.86,761.78,324.86Z"/><path class="cls-11" d="M79.05,181c-4,2.72-8.14,5.68-12.43,8.48s-8.44,5.5-12.38,7.71c-11.06,7-16.42,8.46-20.55,8.72s-6.83-.63-12.2,1.87l5.44-.37c-2.43,1-4.9,2.13-7.31,3.18,7.18,1.13,13.47,2.87,18.44,5.5s8.66,6.14,10.57,10.81c13.56-6.73,26.08-11.12,33.32-9.48,6.2,1.39,12.1,3,18,4.8,2.92.88,5.8,1.78,8.69,2.69l8.71,2.79a322,322,0,0,0,37.45,10,291.43,291.43,0,0,0,48.54,4.93c4.78.13,9.78.21,15,.18s10.79-.11,16.31-.12c11.16-.21,23.29-.58,36.59-1.31,10.7-.77,16.06,1.75,19.06,5.77s3.68,9.66,5,15.44,3.21,11.69,8.49,16.46,13.89,8.29,28.59,9.7c4.89.44,10.85.52,17.13.47s12.9-.06,19.12.24a82,82,0,0,1,16.74,2.13c4.7,1.28,8.25,3.17,9.93,6,2.75,7.73-2.4,16.89-3.37,24.82-.5,4,0,7.64,3,10.68a18.77,18.77,0,0,0,6.5,4,53.36,53.36,0,0,0,11.29,3c11.75,1.54,23.17,3.44,34.45,5.6s22,4.63,32.28,7.38a330,330,0,0,1,54.93,19.49c31.68,14.87,52.42,33.07,58,52.71a145.21,145.21,0,0,0,27.65.35,266,266,0,0,0,31.8-4.26c21.37-4.08,42.78-10.23,63.68-16-15.77-6.33-34.26-11.61-49.25-17.2s-26.29-11.56-27.11-19.33c-1.46-9-5.85-18-12.74-26.84q-2.58-3.33-5.6-6.61t-6.22-6.51a151.58,151.58,0,0,0-14.84-12.62c-21.78-16.39-51.39-30.74-84.16-40.81s-49.72-25-69.61-39.77c-10-7.4-20.59-14.73-34.63-21.14s-31.33-11.85-54.65-15c5.84-1.47,11.35-2.91,16.4-4.51a135.87,135.87,0,0,0,13.55-4.88,48.55,48.55,0,0,0,9.7-5.32c2.48-1.84,4.14-3.76,4.82-5.76-7.66-9.51-36.45-9.63-64.86-6.94-14.19,1.33-28.22,3.22-39.33,4.56s-19.26,1.88-21.65.26a148.26,148.26,0,0,0-53.75-20.56c-2.8-.51-5.71-.91-8.71-1.29-1.5-.19-3-.37-4.58-.53s-3.09-.33-4.83-.39q-5.11-.26-10.57-.31c-3.65,0-7.33.07-11.19.2a316,316,0,0,0-51.32,6.58C112,168.14,95.21,174.78,79.05,181Z"/><path class="cls-12" d="M412.68,340.1a53.36,53.36,0,0,1-11.29-3,18.77,18.77,0,0,1-6.5-4c-3-3-3.52-6.71-3-10.68,1-7.93,6.12-17.09,3.37-24.82-1.68-2.86-5.23-4.75-9.93-6a82,82,0,0,0-16.74-2.13c-6.22-.3-12.84-.22-19.12-.24s-12.24,0-17.13-.47c-14.7-1.41-23.3-4.93-28.59-9.7s-7.2-10.68-8.49-16.46-2-11.4-5-15.44-8.36-6.54-19.06-5.77c-13.3.73-25.43,1.1-36.59,1.31-5.52,0-11.08.18-16.31.12s-10.22,0-15-.18a291.43,291.43,0,0,1-48.54-4.93,322,322,0,0,1-37.45-10l-8.71-2.79c-2.89-.91-5.77-1.81-8.69-2.69-5.85-1.77-11.75-3.41-18-4.8-7.24-1.64-19.76,2.75-33.32,9.48a24,24,0,0,1,1.13,13.33c.09,2.12,2.81,3,7.16,3.23a66.71,66.71,0,0,0,7.63-.22c2.89-.21,6.07-.54,9.41-.94,13.39-1.62,29.67-4.11,40.54-4.17,8.4,4.42,7.75,11.68,3.12,20.35s-13.35,18.72-21.71,28.75c-2.18,3.53-4.48,7.1-6.69,10.76a10.13,10.13,0,0,0-1.68-.43c-2.11,2.7-4.15,5.34-5.92,7.91,8.67-.64,17.14-1,25.13-.85a35.75,35.75,0,0,1,8.26-2.86l-3.56,3a114,114,0,0,1,15.81,1.69,60.64,60.64,0,0,1,13.36,3.9c6.62,3.77,15,5.5,24.47,6.17A79.07,79.07,0,0,1,175.67,312a22.58,22.58,0,0,0-7,4.79c8.48.35,17.76.07,27.3-.37,4.79-.14,9.61-.46,14.49-.57l7.28-.21,7.27,0q3.6,0,7.17.11c2.37.08,4.72.18,7,.31,4.66.37,9.1.79,13.48,1.5,8.74,1.37,16.75,3.57,23.47,6.9A40.51,40.51,0,0,0,287,328.85c4.43,1.31,9.52,2.38,15,3.48,11,2.13,23.54,4.26,35.14,7.09s22.3,6.44,29.54,11.31,11,11.06,9.05,19.08c5.29-2.37,12.3-1.83,19.28-1.25,3.51.3,7,.6,10.3.56a24.73,24.73,0,0,0,9.13-1.53,30.81,30.81,0,0,0,.41,17.8c12.14,4.3,26.44,7.58,29.28,12.72-1.87,5.89-11.59,3.31-20.85,3.42,1,1.36,2,2.71,3,4.05l3.29,1.09a70.76,70.76,0,0,0,15.94-4.81c5.46-4.9,11.64-9.7,16.5-14-1.69,5.34-8.2,10.31-16.5,14a67.08,67.08,0,0,0-7.48,7.56c3.05,1,6.33,1.93,9.6,2.85s6.6,1.82,10,2.69c6.77,1.71,13.77,3.32,21.06,4.75,2.85-.83,5.66-1.68,8.26-2.63-2.23.82-4.71,1.79-7.29,2.81,2,.39,4,.78,6,1.14,5.49-2,13.73-5,23.38-8.39s20.73-7.2,31.84-10.9c15,14.4,32.33,21.3,51.38,23.54-5.58-19.64-26.32-37.84-58-52.71a330,330,0,0,0-54.93-19.49c-10.28-2.75-21.07-5.19-32.28-7.38S424.43,341.64,412.68,340.1Z"/></g></g><path class="cls-1" d="M368.24,516.44c15.22-5.71,28.82-22.49,42-31.8,24.27-17.16,49.39-35.32,76.06-48.44s53.89-21.51,81.81-31.72c40.61-14.86,82.38-14.23,124.83-16.83s84.44-7.4,127.15-7.22c53.4.23,107.26-2.08,160.57.91,51.08,2.86,101.4,8.39,152.08,15.19,52.47,7,106,17.86,158.91,20"/><g class="cls-2"><g class="cls-2"><path class="cls-3" d="M450.67,480.54c-1.72.53-3.44,1.1-5.18,1.67a49.19,49.19,0,0,1,6.88,13.12c-.55,4.5,3.28,4.34,9.47,2s14.73-6.81,23.62-10.67a15.5,15.5,0,0,0-11-8.68C468.88,476.68,461.2,477.24,450.67,480.54Z"/><path class="cls-13" d="M330.13,447.07c-.13,2.19-.42,4.25-.74,6.28a10,10,0,0,1,1,.8A69.94,69.94,0,0,0,330.13,447.07Z"/><path class="cls-3" d="M385.6,494.31a46.17,46.17,0,0,0,11.49-9.42c3.09-3.37,5.76-6.71,8.84-9.76.57-.58,1.18-1.17,1.75-1.71s1.14-1.07,1.73-1.6c-1.06-.06-2.11-.16-3.15-.29s-2.15-.21-3.21-.37a50.92,50.92,0,0,1-14.14-3.71,45,45,0,0,0-11.85-2.06l-12.42-.25c-1.92,3.95-4.46,8.78-7.31,10.33,1.38.33,2.09.48,2.57.21s.81-1.1,1.4-2.63c-.3.77-.67,1.73-1.05,2.74s-.64,1.89-1.07,2.84L358,481.1l-.54,1a7,7,0,0,0,4.85,1.53,18.43,18.43,0,0,0,3-.27,15.6,15.6,0,0,0,3.23-1,33.72,33.72,0,0,0,7.13-4.18c1.17-.87,2.39-1.86,3.51-2.86.55-.49,1.14-1,1.69-1.55s1.17-1.15,1.71-1.71c-.47.86-1,1.82-1.48,2.72s-.91,1.8-1.36,2.73-.91,1.88-1.34,2.81-.88,1.87-1.32,2.82c-1.74,3.77-3.39,7.42-4.9,10.5a44.55,44.55,0,0,0,8.2,1.11,42.39,42.39,0,0,0,7.09-4.25Z"/><path class="cls-3" d="M546.75,524.72c-1-.39-2.09-.79-3.11-1.23-1.73,3.75-3.74,7.21-5.64,10.57l9.94,4.14c.47-.89,1.06-1.82,1.68-2.76s1.28-1.89,2-2.83c.63.91,1.27,1.83,1.94,2.73a6.9,6.9,0,0,1-.63,4.87l.38.13c2,.77,3.92,1.52,6,2.23-1-1.16-2-2.34-2.88-3.51,4.79-1,11.07.27,10.35-5.54C563.61,529,554.46,527.54,546.75,524.72Z"/><path class="cls-4" d="M628.27,514.27a67.88,67.88,0,0,1-2.16-17.61,4.55,4.55,0,0,1-1.85,1,6.12,6.12,0,0,1-2,.21,23.87,23.87,0,0,1-4.44-.92c-.73-.2-1.47-.4-2.2-.56a9.41,9.41,0,0,0-2.06-.27,3.77,3.77,0,0,0-3.19,1.36,37.66,37.66,0,0,0-2.71-10.41,30.39,30.39,0,0,0-5.2-8.24A33,33,0,0,0,599,475.4a39.7,39.7,0,0,0-3.89-2.9c-.69-.45-1.41-.89-2.13-1.32l-.55-.32-.82-.21-1.66-.39c-2.22-.51-4.51-1-6.77-1.42-9.13-1.77-18.38-3.17-26.37-5s-14.77-4-19.1-7.36c-10.34-6.45-23-8.65-36.11-9.34-3.27-.18-6.55-.24-9.85-.29s-6.57,0-9.84,0a191.6,191.6,0,0,1-19.18-.56c-1,2.23-.71,4.32-.94,6.48s-1,4.34-4.26,6.87c6,.59,11.14-1.39,15.62-6a32.8,32.8,0,0,0,2.48-2.83,30.23,30.23,0,0,1-2.48,2.83c-3.25,3.38-6.87,5.9-11.28,9,1.79-.56,3.4-.28,3.92,1.5a6.36,6.36,0,0,1-1.83,3.55c11.16,1,21.76,3,30.57,7.27A44.63,44.63,0,0,1,515.21,495l4.44-.42c9.11-.74,16,.41,20.84,2.78a16.52,16.52,0,0,1,9,10.63c5.4-1.25,11.35-2.48,17.31-3.37a95.85,95.85,0,0,1,17.11-1.23c4.4.59,8.85,1.28,13.36,2l6.82,1.17.85.16.43.07.21,0a.36.36,0,0,1,.12.08l.85.65,1.66,1.33c2.11,1.74,4.34,3.71,6.38,5.67l3.15,3,3.1,3.12c.84-1.31,1.65-2.68,2.52-4.1a49.38,49.38,0,0,0,2.72-4.46C626.7,512.92,627.52,513.62,628.27,514.27Z"/><path class="cls-5" d="M1292.39,397.66c-.89-8.06-4.13-16.44-8.93-24.56a102.82,102.82,0,0,0-8.37-12,119,119,0,0,0-10.44-11.36c-15.16-14.46-35.2-26.29-58.78-30.13-12-3-24.34-6-37.14-9.06l-9.69-2.25c-3.22-.75-6.56-1.48-9.88-2.21l-9.76-2.12-9.67-2.06c-25.86-5.43-52.49-10.45-80.38-14.65,6.73,14.67-1,30.32-25.61,37.79-6.29,1.93-14.65-.44-22.21-2.59s-14.27-4.11-17-1.54c-15.08,4.85-24.38,10.74-34.28,16.05A124.12,124.12,0,0,1,913,350.62c5.82,4.45,6.51,14.36,13.37,15a84.71,84.71,0,0,0,31.15,9.46c11.57,1.13,24.41-.06,38.64-4.79,4.07-1.37,9.87,2.56,12.22,7.17s1.31,9.91-8.09,11.37c22.81,5.67,39,.69,56.47,2,12.45.43,19.54,2.51,23.36,5.62s4.39,7.23,3.85,11.88c-1.1,9.3-6.56,20.69.29,30.16a24.14,24.14,0,0,0,9.4,11.31c8.78-2.34,17.5-4.94,26.19-7.65l6.52-2.07,6.39-2.08,12.85-4.19c17.21-5.53,34.73-10.82,52.36-15.12,8.27-2,18.44,8.46,26.82,6.3,15.09-.61,33.08-4,46.6-9.21a87.11,87.11,0,0,0,9.21-4.18,41.32,41.32,0,0,0,6.94-4.58C1291.29,403.94,1293.15,400.73,1292.39,397.66Z"/><path class="cls-6" d="M832.37,286.94a110,110,0,0,1,28.26-9.66l-11.36-4.38-11.07-4.4c-3.61-1.49-7.28-2.94-10.81-4.43l-5.31-2.21-1.32-.56c-.46-.18-1.11-.36-1.65-.54l-3.42-1.09c-5,3.18-9.94,6.44-14.35,9.72a80.13,80.13,0,0,1,9.91,2.4,63.05,63.05,0,0,1,9.11,3.69A42.09,42.09,0,0,1,832.37,286.94Z"/><path class="cls-6" d="M1050.89,451.75c5.73-14.88-7.28-17.45-16.24-31.08-24,7.57-39.4,3.09-51.54-12.64-1.31,3.75-10.51.44-14.38,1.88,1.24-3.8-6.9-10.8,1-13.74-3.94,1.48-7.94.43-11.63-.25s-7-1.1-9.57,1.59c-6.12-2.65-3.61-5.33-.57-8.21s6.61-5.91,2.4-9.37c-11.22,5.16-21.74,7.09-31.09,6.72a48.42,48.42,0,0,1-23.86-7c-12.64-7.91-17.85-21.11-9.85-31.32,6-9.39,17.94-14.33,25.25-27.5,3.66-6.59,11.25-7.92,20.11-7.1s19,3.83,27.67,5.84c-4.7-8.54-29.28-12.91-15.49-21.43,3.37-1.22,6.83-2.55,10.31-3.94s7-2.85,10.35-4.41,6.69-3.15,9.74-4.86a72.35,72.35,0,0,0,8.38-5.34c-9.63-.08-19.56.59-29.39,1.46s-19.43,2.06-28.35,3.1c-17.92,2-33.17,3.44-42.46.84-7.18-2.56-14.15-5.14-21-7.74a110,110,0,0,0-28.26,9.66,42.09,42.09,0,0,0-12-11.46,63.05,63.05,0,0,0-9.11-3.69,80.13,80.13,0,0,0-9.91-2.4c-5.34,4.05-9.83,8.18-12,12.57-5.91,7.65,2.78,10.87,14.56,14l9.25,2.43c1.59.42,3.17.87,4.72,1.32l2.31.7c.7.24,1.29.49,1.93.74,5,2,9.37,4.39,11.91,7.56-2.67.51-5.2,1.08-7.57,1.71-1.19.32-2.35.65-3.47,1l-3.38,1.1a65.09,65.09,0,0,0-12.8,5.4,41.56,41.56,0,0,0-9.08,6.71,29.33,29.33,0,0,0-5.69,7.59c-5.46,10.58-2.83,22.46,5.17,32.72a125.69,125.69,0,0,0,17.61,16.49,144.53,144.53,0,0,0,23.07,14.34c9.75,2.8,23.44,3.88,35.2-1.12-3.92,1.66-15.71,6.65-12.82,8.85,22.33,7.68,31.86,24.05,60.54,18.78-1.06,3.85,1.73,6.07-6,9.32,7.69-3.25,9.22.38,10.77,4s3.08,7.19,10.65,4.05c3.53,5.3,4.57,13.33,7.25,19.81s7,11.4,16.73,10.73a39.47,39.47,0,0,1,7.34-.52,35.89,35.89,0,0,1,6,.76c1.73-.73,3.61-1.4,5.51-2.05s3.81-1.28,5.75-1.87c3.89-1.16,7.89-2.22,12-3.07a135.74,135.74,0,0,1,26.53-2.9,243.67,243.67,0,0,0,39.89-3.89C1056.94,455.92,1051.46,455.07,1050.89,451.75Z"/><path class="cls-7" d="M1084.28,438.54c-6.85-9.47-1.39-20.86-.29-30.16.54-4.65,0-8.78-3.85-11.88s-10.91-5.19-23.36-5.62c-17.52-1.35-33.66,3.63-56.47-2,9.4-1.46,10.45-6.76,8.09-11.37s-8.15-8.54-12.22-7.17c-14.23,4.73-27.07,5.92-38.64,4.79a84.71,84.71,0,0,1-31.15-9.46c-6.86-.65-7.55-10.56-13.37-15a124.12,124.12,0,0,0,37.2-13.68c9.9-5.31,19.2-11.2,34.28-16.05,2.76-2.57,9.48-.62,17,1.54s15.92,4.52,22.21,2.59c24.57-7.47,32.34-23.12,25.61-37.79-19.79-3-40.19-5.56-61.38-7.52-1.9-.07-4.05-.08-6.13-.09a72.35,72.35,0,0,1-8.38,5.34c-3.05,1.71-6.34,3.33-9.74,4.86s-6.86,3-10.35,4.41-6.94,2.72-10.31,3.94c-13.79,8.52,10.79,12.89,15.49,21.43-8.68-2-18.77-5-27.67-5.84s-16.45.51-20.11,7.1c-7.31,13.17-19.23,18.11-25.25,27.5-8,10.21-2.79,23.41,9.85,31.32a48.42,48.42,0,0,0,23.86,7c9.35.37,19.87-1.56,31.09-6.72,4.21,3.46.63,6.48-2.4,9.37s-5.55,5.56.57,8.21c2.54-2.69,5.89-2.27,9.57-1.59s7.69,1.73,11.63.25c-7.86,2.94.28,9.94-1,13.74,3.87-1.44,13.07,1.87,14.38-1.88,12.14,15.73,27.59,20.21,51.54,12.64,9,13.63,22,16.2,16.24,31.08.57,3.32,6,4.17,12.39,4.88,10.25-1.8,20.38-4.11,30.4-6.78A24.14,24.14,0,0,1,1084.28,438.54Z"/><path class="cls-8" d="M960.28,470.17c-9.77.67-14-4.25-16.73-10.73s-3.72-14.51-7.25-19.81c-7.57,3.14-9.11-.44-10.65-4.05s-3.08-7.22-10.77-4c7.68-3.25,4.89-5.47,6-9.32-28.68,5.27-38.21-11.1-60.54-18.78-2.89-2.2,8.9-7.19,12.82-8.85-11.76,5-25.45,3.92-35.2,1.12a144.53,144.53,0,0,1-23.07-14.34A125.69,125.69,0,0,1,797.23,365c-8-10.26-10.63-22.14-5.17-32.72a29.33,29.33,0,0,1,5.69-7.59,41.56,41.56,0,0,1,9.08-6.71,65.09,65.09,0,0,1,12.8-5.4l3.38-1.1c1.12-.35,2.28-.68,3.47-1,2.37-.63,4.9-1.2,7.57-1.71-2.54-3.17-6.93-5.55-11.91-7.56-.64-.25-1.23-.5-1.93-.74l-2.31-.7c-1.55-.45-3.13-.9-4.72-1.32L803.93,296c-11.78-3.14-20.47-6.36-14.56-14,2.14-4.39,6.63-8.52,12-12.57a117.52,117.52,0,0,0-26.17-1.3,214.53,214.53,0,0,0-27,3.37c-17.76,3.28-34.65,8-49.1,11-.52,5.59.69,10,5.44,11.64,9.09,4.11,15,8.83,19,14s6.12,10.69,8,16.36c3.76,11.34,6.57,23.13,21.84,33.18,3.06,2,8.79,3.59,14.17,5s10.35,2.52,11.86,3.54c7.11,7.16,7,15,6.89,22.88s-.08,15.68,6.59,22.92c-.44,1.95,4.7,1.22,10.15.86s11.23-.37,12.08,2.68a29.2,29.2,0,0,1,3.67,8.54c.42,1.48.77,3,1.15,4.45s.82,2.93,1.31,4.33c1.94,5.59,5.12,10.33,13.58,12,23.16,5.51,38,14.06,49.4,24.1s19.41,21.46,28.38,32.4c10.79-4.87,20.69-10.4,30.62-15.83s19.85-10.76,30.37-15a35.89,35.89,0,0,0-6-.76A39.47,39.47,0,0,0,960.28,470.17Z"/><path class="cls-9" d="M417,283.29,398.32,295l-8.53,5.34c-2.67,1.71-5.4,3.37-8,5,1.68-.55,3.48-1.09,5.18-1.6s3.38-1,5.1-1.46,3.42-.92,5.1-1.34l2.49-.61,2.54-.59c3.36-.76,6.58-1.43,9.9-2q2.44-.44,4.83-.81c1.58-.24,3-.38,4.53-.55a115.32,115.32,0,0,1,30.78.6c17.59,3,30.45,9.78,42.12,18.1,1.9,1.51,7.17.72,13.78-.86s14.46-3.92,21.9-5.81l2.91-.73,4.74-1.27c1.57-.41,3.14-.81,4.7-1.18l2.34-.55,2.29-.45c3.05-.57,6-1.06,8.92-1.45s5.61-.52,8.22-.62c10.45-.32,18.42,1.57,22,6.11a12.13,12.13,0,0,1-3.36,6,38.94,38.94,0,0,1-7.4,5.94c-.76.49-1.55,1-2.37,1.46s-1.68,1-2.57,1.52q-2.67,1.53-5.63,3c-2,1-4.07,2.1-6.22,3.14l-6.7,3.2c2.53-.06,4.95.1,7.31.22s4.63.3,6.8.59a105.23,105.23,0,0,1,12.17,2.27,92.91,92.91,0,0,1,10.48,3.33c3.22,1.28,6.22,2.66,9,4.11a92,92,0,0,1,14.69,9.83c2.16,1.76,4.22,3.53,6.16,5.36s3.81,3.7,5.62,5.56c14.48,15,25.45,30.49,47,41.2q8.13,4,16.06,8.6,4,2.26,7.87,4.66t7.63,4.88A192.35,192.35,0,0,1,730,444.7c15.9,15.39,26.69,32.75,29.81,50.49,1.09,7.71,8.68,13.1,18.15,18s20.79,9.25,30,14.78l5.3-3.13,5.21-3,.66-.38a4.36,4.36,0,0,1,.75-.37l1.87-.74,3.71-1.46,7.36-2.84c-6.84-4.56-14.11-9.16-17.15-13.82a61.09,61.09,0,0,1-5-7.12,30.91,30.91,0,0,1-3.16-7.42c-7.27-34-24.09-57.16-72.69-71.35-15.94-6.09-6.69-35.43-15.77-41.44a266.41,266.41,0,0,1-23.51-20.79c-7-6.89-12.89-13.84-18.75-20.82-11.66-14-22.23-28.24-36-43.18-.69-.95-1.45-1.91-2.32-2.9s-1.88-2-2.95-3a84.09,84.09,0,0,0-7.4-6.18c-2.88-2.06-6.07-4.15-9.52-6.24s-7.44-4.06-11.54-6a350.6,350.6,0,0,0-43.94,6.56c-1.9.35-3.91.83-5.86,1.25l-5.92,1.3c-2,.4-4,.91-6,1.39l-6,1.44-3,.71-3.08.79-6.19,1.55-3.11.77-.73.17-.42.06-.83.12q-1.67.24-3.36.42a75.76,75.76,0,0,1-17.06,5.19c-1.34.23-2.62.41-3.88.55s-2.54.25-3.74.3a54.83,54.83,0,0,1-6.94-.1,53.19,53.19,0,0,1-6.29-.9c-2-.43-3.87-.93-5.7-1.51s-3.52-1.26-5.19-2-3.31-1.43-4.88-2.18c-3.12-1.52-6.18-3-9.3-4.26a35.37,35.37,0,0,0-9.93-2.57C438.37,274.13,429.68,275.74,417,283.29Z"/><path class="cls-10" d="M834.81,444.79c-8.46-1.69-11.64-6.43-13.58-12-.49-1.4-.9-2.85-1.31-4.33s-.73-3-1.15-4.45a29.2,29.2,0,0,0-3.67-8.54c-.85-3.05-6.63-3-12.08-2.68s-10.59,1.09-10.15-.86c-6.67-7.24-6.69-15.05-6.59-22.92s.22-15.72-6.89-22.88c-1.51-1-6.5-2.19-11.86-3.54s-11.11-2.94-14.17-5c-15.27-10.05-18.08-21.84-21.84-33.18-1.88-5.67-4-11.22-8-16.36s-9.9-9.87-19-14c-4.75-1.6-6-6-5.44-11.64l-.26.06c1.89-5.66-1.75-8.16-6.35-9.23a34.05,34.05,0,0,0-7-.76c-2.17,0-4.06.06-5.14.13a116.51,116.51,0,0,1-28.58-2c-8.68-1.6-17.31-3.87-29.87-5.52l-3.61,0c-1.19,0-2.48.08-3.72.14-2.51.11-5,.25-7.52.43,4.1,2,8,4,11.54,6s6.64,4.18,9.52,6.24a84.09,84.09,0,0,1,7.4,6.18c1.07,1,2,2,2.95,3s1.63,2,2.32,2.9c13.75,14.94,24.32,29.2,36,43.18,5.86,7,11.78,13.93,18.75,20.82A266.41,266.41,0,0,0,719,374.84c9.08,6-.17,35.35,15.77,41.44,48.6,14.19,65.42,37.32,72.69,71.35a30.91,30.91,0,0,0,3.16,7.42,61.09,61.09,0,0,0,5,7.12c3,4.66,10.31,9.26,17.15,13.82,4.09-1.58,8.18-3.08,12.13-4.5,2-.7,4-1.38,5.92-2s3.87-1.27,5.79-1.85c4-1.65,8.93-.29,12.84,1.49a37.4,37.4,0,0,1,4.84,2.66c1.2.77,1.92,1.32,1.92,1.32a160.77,160.77,0,0,0,36.4-11.8c-9-10.94-17-22.38-28.38-32.4S858,450.3,834.81,444.79Z"/><path class="cls-11" d="M348.13,324.86c-4.36,4.89-9.16,10.25-13.5,13.85a40.21,40.21,0,0,1-4,3.46,19.89,19.89,0,0,1-3.16,1.95,9.74,9.74,0,0,1-4.83,1c-1.38,0-2.61-.32-3.88-.36a7.65,7.65,0,0,0-1.9.14l-.25.06-.12,0-.22.1c-.3.15-.61.3-.93.48-.65.34-1.32.74-2,1.2l3-.75.74-.19a3.32,3.32,0,0,1,.46,0l.9,0-.69.35-.17.08-.08.05-.17.1-.65.39L314,348.52l-2.53,1.59a23.65,23.65,0,0,1,3.68,0,49.45,49.45,0,0,1,5.1.14c1.12.46,2.2,1,3.29,1.46a43.37,43.37,0,0,1,6.09,3.44,32.62,32.62,0,0,1,9.44,9.64c7.61-5,15.46-8.57,21.19-6.91,9.77,2.86,19.18,6.42,28.79,9.84a226.06,226.06,0,0,0,30.54,8.93,177,177,0,0,0,37.68,3.42c7.15,0,14.64-.17,22.62-.62s16.38-1.13,25.3-2.14c7.1-1,11.15,1.27,14,5.07s4.5,9.22,6.59,14.76,4.63,11.22,9.16,15.62,11,7.55,21.16,8a70.91,70.91,0,0,0,11.59-.78l3.21-.43,1.62-.22c.54-.07,1.08-.15,1.56-.18,2-.18,4-.33,5.88-.4a39.22,39.22,0,0,1,5.58.22,21,21,0,0,1,5,1.07,11.8,11.8,0,0,1,7,5.58c1.45,3.76,1.78,7.93,1.94,12.12s.13,8.4.63,12.28a23.05,23.05,0,0,0,3.55,10.39,15.87,15.87,0,0,0,3.9,3.95,22,22,0,0,0,6,2.95,164.65,164.65,0,0,1,18,6.08c1.54.62,3.07,1.25,4.57,1.89l2.25,1,2.3,1c1.54.69,3,1.38,4.53,2.11s3.08,1.47,4.58,2.23l4.57,2.32q2.29,1.19,4.51,2.41c1.55.82,3.09,1.65,4.59,2.49l4.52,2.57c3.09,1.73,5.94,3.52,9,5.33s5.85,3.67,8.84,5.55c5.72,3.78,11.66,7.64,16.73,11.65q3.81,3,7.24,6.12t6.33,6.32c7.86,8.57,13.35,17.71,16,27.4,13.31,1.33,26.71-1.73,39.34-6.81s24.79-12.18,36.41-19c-9.17-5.53-20.46-9.92-30-14.78s-17.06-10.27-18.15-18c-3.12-17.74-13.91-35.1-29.81-50.49a192.35,192.35,0,0,0-27.14-21.58q-3.75-2.49-7.63-4.88t-7.87-4.66Q679.4,409,671.27,405c-21.58-10.71-32.55-26.25-47-41.2-1.81-1.86-3.67-3.72-5.62-5.56s-4-3.6-6.16-5.36A92,92,0,0,0,597.77,343c-2.81-1.45-5.81-2.83-9-4.11a92.91,92.91,0,0,0-10.48-3.33,105.23,105.23,0,0,0-12.17-2.27c-2.17-.29-4.46-.44-6.8-.59s-4.78-.28-7.31-.22l6.7-3.2c2.15-1,4.26-2.18,6.22-3.14s3.85-2,5.63-3c.89-.5,1.75-1,2.57-1.52s1.61-1,2.37-1.46a38.94,38.94,0,0,0,7.4-5.94,12.13,12.13,0,0,0,3.36-6c-3.62-4.54-11.59-6.43-22-6.11-2.61.1-5.35.27-8.22.62s-5.87.88-8.92,1.45l-2.29.45-2.34.55c-1.56.37-3.13.77-4.7,1.18L533,307.67l-2.91.73c-7.44,1.89-15.27,4.22-21.9,5.81s-11.88,2.37-13.78.86c-11.67-8.32-24.53-15.13-42.12-18.1a115.32,115.32,0,0,0-30.78-.6c-1.49.17-2.95.31-4.53.55s-3.2.52-4.83.81c-3.32.58-6.54,1.25-9.9,2l-2.54.59-2.49.61q-2.52.63-5.1,1.34c-1.72.47-3.38,1-5.1,1.46s-3.5,1.05-5.18,1.6C369.34,313.06,358.3,319.44,348.13,324.86Z"/><path class="cls-12" d="M613.51,467.32a22,22,0,0,1-6-2.95,15.87,15.87,0,0,1-3.9-3.95A23.05,23.05,0,0,1,600.08,450c-.5-3.88-.48-8.09-.63-12.28s-.49-8.36-1.94-12.12a11.8,11.8,0,0,0-7-5.58,21,21,0,0,0-5-1.07,39.22,39.22,0,0,0-5.58-.22c-1.92.07-3.89.22-5.88.4-.48,0-1,.11-1.56.18l-1.62.22-3.21.43a70.91,70.91,0,0,1-11.59.78c-10.15-.45-16.63-3.61-21.16-8s-7.07-10.08-9.16-15.62-3.74-10.95-6.59-14.76-6.92-6.05-14-5.07c-8.92,1-17.34,1.7-25.3,2.14s-15.47.65-22.62.62a177,177,0,0,1-37.68-3.42,226.06,226.06,0,0,1-30.54-8.93c-9.61-3.42-19-7-28.79-9.84-5.73-1.66-13.58,1.88-21.19,6.91a34.19,34.19,0,0,1,4.62,11.86c.66,1.88,2.83,2.89,5.93,3.36a56,56,0,0,0,11.83-.09c9.14-.8,20.34-2.72,28.37-2.68,7.34,4.07,8.91,10.76,7.84,18.54s-4.59,16.67-7.84,25.31c-.63,3.06-1.26,6.17-1.87,9.32a8.74,8.74,0,0,0-1.34-.48c-.8,2.31-1.5,4.54-2.1,6.73,6.09-.05,12.13,0,18,.46a15.89,15.89,0,0,1,5.23-2.28l-1.76,2.6c8.28.84,16.1,2.54,22.8,5.82,5.88,3.55,12.46,5.26,19.45,6a36.41,36.41,0,0,1,6.34-4.11,11,11,0,0,0-3.69,4.33c12.41.86,26.09-.95,39.21-.72s25.85,2.05,36.19,8.35c4.35,3.33,11.05,5.41,18.85,7.21s16.78,3.27,25.6,5.19,17.47,4.27,24.09,8.09c4.6,4.65,7.53,10.59,9,18.23a3.1,3.1,0,0,1,1.22-1.17,4,4,0,0,1,1.71-.34,11,11,0,0,1,1.94.18c.34.06.67.12,1,.2l1.09.28c.73.18,1.44.37,2.14.5a14,14,0,0,0,2,.25,4.11,4.11,0,0,0,3.48-1.31,77,77,0,0,0,3,17.5c.61.56,1.31,1.13,2,1.69l2,1.64,1.94,1.58c.67.54,1.32,1.08,1.93,1.62a24.57,24.57,0,0,1,3.19,3.3,11.25,11.25,0,0,1,2.07,3.67,4.37,4.37,0,0,1-.85,2.87,2.24,2.24,0,0,1-1.8.72,11.6,11.6,0,0,1-2.44-.44,13.86,13.86,0,0,0-2.46-.48l1.63,4.09,1.26,1.2c1.95-.7,3.65-2.23,5.59-4.19,1.66-4.69,4.3-9.24,6.31-13.38a20.34,20.34,0,0,1-2.19,7.41,24.35,24.35,0,0,1-2,3.19,21.58,21.58,0,0,1-2.15,2.78c-.46,1.2-.89,2.41-1.27,3.61a35.09,35.09,0,0,0-.86,3.62,75.48,75.48,0,0,0,18.29,11.68,45.68,45.68,0,0,0,4.19-2.34c-1.13.74-2.38,1.63-3.67,2.55,1,.46,2.09.92,3.15,1.34.65-.46,1.54-1,2.48-1.53l3.09-1.82c1.06-.65,2.36-1.34,3.72-2.06l4.26-2.28c6.28-3.16,13.85-6.75,22.38-10.44a52.88,52.88,0,0,0,4.62,5c1.61,1.55,3.24,3,4.92,4.32A60.94,60.94,0,0,0,711,547.51a55.77,55.77,0,0,0,10.49,4.23,58.32,58.32,0,0,0,10.66,2.06c-2.69-9.69-8.18-18.83-16-27.4q-3-3.23-6.33-6.32T702.53,514c-5.07-4-11-7.87-16.73-11.65-3-1.88-5.84-3.74-8.84-5.55s-5.92-3.6-9-5.33l-4.52-2.57c-1.5-.84-3-1.67-4.59-2.49s-3-1.62-4.51-2.41l-4.57-2.32q-2.25-1.14-4.58-2.23c-1.52-.73-3-1.42-4.53-2.11l-2.3-1-2.25-1c-1.5-.64-3-1.27-4.57-1.89A164.65,164.65,0,0,0,613.51,467.32Z"/></g></g><path class="cls-1" d="M623.12,192.27c116.13-.19,226.82,59,343.25,58.36,32.51-.17,65.1,1.06,97.6.29,18.53-.44,33.85-10.31,52-12.55,27.29-3.36,56.56.6,84,.6"/><g class="cls-2"><g class="cls-2"><path class="cls-14" d="M674.39,215.69l-2.9-1.9a82.53,82.53,0,0,1-2.89,14.46c-2.16,3.14-.55,5.43,3,7.41s9.1,3.84,14.92,6.16C688.59,232.56,686.12,223.77,674.39,215.69Z"/><path class="cls-15" d="M628.61,112.34c-1.92,1.78-3.81,3.54-5.61,5.31a8.47,8.47,0,0,1,.6,1.17Z"/><path class="cls-14" d="M640.6,184.11a18.61,18.61,0,0,0,5.65,1.23,20.17,20.17,0,0,0,5-.33c1.58-.29,3.11-.7,4.64-1.08a27.83,27.83,0,0,1,4.62-.76,49.52,49.52,0,0,1-6.69-16.31,56.41,56.41,0,0,0-3.66-9.52,63.06,63.06,0,0,0-5.17-8.79c-3,1.51-7.17,3.26-10.85,2.68,1.89,2.25,1.86,2.29,4.59.77-1.37.76-3.39,1.85-5.08,2.86l-3,1.78c1.15,6,11.8,9.81,18.82,9.3-1.1.59-2.3,1.22-3.57,1.93l-3.94,2.25c-2.68,1.54-5.4,3.11-7.82,4.56,1.23,2.08,2.51,4.17,3.84,6.19a24.89,24.89,0,0,0,5.22,1.73Z"/><path class="cls-14" d="M701,307.45c-.43-.88-.84-1.76-1.22-2.66a61.15,61.15,0,0,1-8.48,5.78q2,4.37,4,8.84a41,41,0,0,1,4.81-2.78c-.06,1.09-.12,2.2-.15,3.3a7.62,7.62,0,0,1-2.61,3.8l.16.32c.79,1.66,1.58,3.3,2.41,4.92,0-1.49,0-3,0-4.44,1.59.78,3,2.16,4.39,2.72s2.56.25,3.6-2.44c.19-2.7-.78-5.47-2.18-8.34S702.57,310.63,701,307.45Z"/><path class="cls-16" d="M756.55,337.44a70.43,70.43,0,0,1,5.05-17,4.72,4.72,0,0,1-3.92-.47,21.72,21.72,0,0,1-3.67-2.74c-2.41-2.08-4.89-4.19-7.5-3.17a34,34,0,0,0,2.42-20.17c-1.14-6.33-3.89-12.31-7.06-18-6.39-11.38-14.63-21.49-16-31.46a51.3,51.3,0,0,0-5.49-14,85.35,85.35,0,0,0-8.17-11.72c-1.49-1.84-3-3.65-4.53-5.46s-3-3.58-4.52-5.41a89.52,89.52,0,0,1-8.17-11.56c-2.9,2.33-3.23,7.41-8.27,7.37,2.3,4.17,5.42,5.7,9.46,4.65a17.6,17.6,0,0,0,2.37-.82,14.54,14.54,0,0,1-2.37.82c-3,.83-5.68.65-9,.43a2.83,2.83,0,0,1,1,3.57,4,4,0,0,1-2.4,1.65c8.64,15.27,15.17,31.27,11.6,51.87.87.71,1.75,1.41,2.61,2.1a36.67,36.67,0,0,1,6.35,6.49,24,24,0,0,1,3.55,6.63,22.49,22.49,0,0,1,.07,13.49,99.09,99.09,0,0,1,10,5.18,35,35,0,0,1,8.25,6.64c6.69,9.95,11.84,21.59,17.35,33.43a62.41,62.41,0,0,0,9.69-5.11C755.64,335.61,756.08,336.53,756.55,337.44Z"/><path class="cls-17" d="M1200,220.12a94.73,94.73,0,0,0-5.74-24.14,101.21,101.21,0,0,0-5.15-11.56,86.24,86.24,0,0,0-6.57-10.65A60.05,60.05,0,0,0,1164.41,157a51,51,0,0,0-25.57-6.88,246.16,246.16,0,0,0-33.32-1.4l-.56,0-.85.06-1.69.13-3.38.3c-2.34.21-4.31.48-6.43.76l-3.13.44-2.86.46c-1.9.32-3.89.67-5.51,1l-5,1-4.5,1-2,.43-1,.21-.24.05-.13,0s0,0,0,0l0,0s-.12,0-.23,0h-.34l-.68,0a70.51,70.51,0,0,1-10.59-.17,47.13,47.13,0,0,1-5.24-1c-1.73-.43-3.41-.81-5.23-1.2,1.1,7,1.63,14.56.58,21.61a42,42,0,0,1-1.09,5.17,28.11,28.11,0,0,1-2.7,4.84,31.77,31.77,0,0,1-8.25,8.27c-7,4.84-19.52-7-22.65-1.62-8.44,5.57-13.89,11.62-19.75,17.13S979.88,218,969.5,221.44c3.58,4.44,4,14.37,8.19,15,11.2,9.55,25.31,13.81,42.25,2.66,4.78-3.19,14.49,14.1,3.08,18.25,7.1,2.1,13.1,1.51,18.64.34,1.38-.29,2.74-.62,4.08-.95l4.07-1a46,46,0,0,1,8-1.27,34.06,34.06,0,0,1,9.39-.09,12.84,12.84,0,0,1,5.91,2.14c3,2.21,4.42,6,5.25,10.6s1,10,1.91,15.16,2.43,10.1,6.33,13.67a20.55,20.55,0,0,0,4.83,5,18.28,18.28,0,0,0,5.74,2.74q4.5-3.93,8.59-8.17c1.36-1.4,2.69-2.82,4-4.24l1-1.07.49-.54.57-.56a3.43,3.43,0,0,0,.27-.27l.13-.23.26-.46.52-.92.52-.93.43-.88.89-1.79c.56-1.18,1-2.31,1.56-3.5l2.7-6.65c.55-2.14,2.76-4.36,4.54-6.54s3.9-4.29,6-6.29a110.06,110.06,0,0,1,13.89-11.27c2.33-1.6,5.18-.12,8,1.38s5.63,3,8.07,1.52a87.51,87.51,0,0,0,28-13C1195.88,233.31,1201.06,226.18,1200,220.12Z"/><path class="cls-18" d="M931.13,155.1a54.13,54.13,0,0,1,7.25-4.93A39.23,39.23,0,0,1,942,148.4q1.79-.83,3.57-1.47c-3.23-3.15-6.49-6.56-9.58-9.82l-4.67-5-4.59-5c-2.31,2.88-4.75,5.71-7,8.63a23,23,0,0,1,6.77,7.3A41.42,41.42,0,0,1,931.13,155.1Z"/><path class="cls-18" d="M1062.63,315.51c2.35-15.44-9-16.39-16.65-29.14-14.9,9.76-25.12,6.18-33-8.89-.71,3.83-6.59.93-9,2.52.7-3.84-4.45-10.59.39-13.77-4.84,3.18-10-3.56-13.09,1.88-7.56-5.14,6.2-10.88,1-17.61-6.83,5.35-13.26,7.32-19,7a20.49,20.49,0,0,1-8-2.15,23.36,23.36,0,0,1-6.57-5,28.49,28.49,0,0,1-7.07-15.12A28.18,28.18,0,0,1,954,218.82c1.86-4.56,4.38-8.09,6.89-12.09a61.37,61.37,0,0,0,3.66-6.55c.59-1.22,1.1-2.52,1.68-3.92s1.25-2.93,1.82-4.58c2.26-6.59,7-7.92,12.37-7.13s11.4,3.68,16.48,5.46c-2.74-8.35-17.37-12.51-9.18-21.15,8-5.09,16.63-11.69,21.89-19.58-10.4.76-22.32,3.61-33.34,5.7-2.74.52-5.43,1-8,1.38l-3.32.46c-.83.12-1.64.2-2.43.25a18,18,0,0,1-4.34-.18,9.48,9.48,0,0,1-3.55-1.48c-1.55-1.38-3.06-2.76-4.55-4.15s-3-2.88-4.47-4.33q-1.79.65-3.57,1.47a39.23,39.23,0,0,0-3.64,1.77,54.13,54.13,0,0,0-7.25,4.93A41.42,41.42,0,0,0,926.49,143a23,23,0,0,0-6.77-7.3c-2.78,3.57-5.43,7.13-7.13,11.22-2,3.42-2.17,6.18-1.25,8.62s3,4.59,5.32,6.62,5.13,4.13,7.49,6.42a19,19,0,0,1,5.38,8.27,33.81,33.81,0,0,0-8.09,2.86,33.38,33.38,0,0,0-6.82,4.38,37.84,37.84,0,0,0-9.68,12.59c-4.68,9.72-5.73,21.7-3,32.83,4.13,13.54,9.77,23.39,20.17,34.12a26.16,26.16,0,0,0,10.33,3.48,20.33,20.33,0,0,0,11.85-2.5c-2.54,1.48-10.42,5.79-8.78,8.14a61.18,61.18,0,0,1,9.16,7.68c2.8,2.7,5.47,5.46,8.35,7.82a25.86,25.86,0,0,0,9.66,5.15,20,20,0,0,0,11.6-.3c-.63,3.85,1,6.07-3.58,9.32,9.28-6.47,3.73,14.37,13,7.93,4.42,10.57,2.62,32,15.51,30.12a16.57,16.57,0,0,1,9-.24c9.54-6.35,20-11.3,32.75-13.16,1.15-.17,2.29-.36,3.42-.58l1.75-.33,2.26-.38c3-.52,6-1.14,8.9-1.85s5.81-1.49,8.61-2.43,5.56-1.87,8.23-3.06a28.4,28.4,0,0,1-7.51-.12C1064.63,317.94,1063.14,317.11,1062.63,315.51Z"/><path class="cls-19" d="M1086.63,295.94c-3.9-3.57-5.45-8.51-6.33-13.67s-1.07-10.55-1.91-15.16-2.23-8.39-5.25-10.6a12.84,12.84,0,0,0-5.91-2.14,34.06,34.06,0,0,0-9.39.09,46,46,0,0,0-8,1.27l-4.07,1c-1.34.33-2.7.66-4.08.95-5.54,1.17-11.54,1.76-18.64-.34,11.41-4.15,1.7-21.44-3.08-18.25-16.94,11.15-31.05,6.89-42.25-2.66-4.19-.61-4.61-10.54-8.19-15,10.38-3.46,16.68-8.4,22.56-13.92s11.31-11.56,19.75-17.13c3.13-5.42,15.69,6.46,22.65,1.62a31.77,31.77,0,0,0,8.25-8.27,28.11,28.11,0,0,0,2.7-4.84,42,42,0,0,0,1.09-5.17c1-7,.52-14.65-.58-21.61l-.48-.09a1.79,1.79,0,0,0-.29-.05l-.5,0-2-.2-4-.4-8.27-.79c-5.61-.51-11.37-1-17.37-1.45-1.1,0-2.2.1-3.35.19-5.26,7.89-13.93,14.49-21.89,19.58-8.19,8.64,6.44,12.8,9.18,21.15-5.08-1.78-11.09-4.68-16.48-5.46s-10.11.54-12.37,7.13c-.57,1.65-1.18,3.16-1.82,4.58s-1.09,2.7-1.68,3.92a61.37,61.37,0,0,1-3.66,6.55c-2.51,4-5,7.53-6.89,12.09a28.18,28.18,0,0,0-2.28,16.41,28.49,28.49,0,0,0,7.07,15.12,23.36,23.36,0,0,0,6.57,5,20.49,20.49,0,0,0,8,2.15c5.7.35,12.13-1.62,19-7,5.15,6.73-8.61,12.47-1,17.61,3.1-5.44,8.25,1.3,13.09-1.88-4.84,3.18.31,9.93-.39,13.77,2.41-1.59,8.29,1.31,9-2.52,7.92,15.07,18.14,18.65,33,8.89,7.63,12.75,19,13.7,16.65,29.14.51,1.6,2,2.43,4.06,2.82a28.4,28.4,0,0,0,7.51.12,88.63,88.63,0,0,0,23-14.78,18.28,18.28,0,0,1-5.74-2.74A20.55,20.55,0,0,1,1086.63,295.94Z"/><path class="cls-20" d="M999.3,340.48c-12.89,1.89-11.09-19.55-15.51-30.12-9.32,6.44-3.77-14.4-13-7.93,4.62-3.25,3-5.47,3.58-9.32a20,20,0,0,1-11.6.3,25.86,25.86,0,0,1-9.66-5.15c-2.88-2.36-5.55-5.12-8.35-7.82a61.18,61.18,0,0,0-9.16-7.68c-1.64-2.35,6.24-6.66,8.78-8.14a20.33,20.33,0,0,1-11.85,2.5,26.16,26.16,0,0,1-10.33-3.48c-10.4-10.73-16-20.58-20.17-34.12-2.77-11.13-1.72-23.11,3-32.83a37.84,37.84,0,0,1,9.68-12.59,33.38,33.38,0,0,1,6.82-4.38,33.81,33.81,0,0,1,8.09-2.86,19,19,0,0,0-5.38-8.27c-2.36-2.29-5.14-4.4-7.49-6.42s-4.41-4.19-5.32-6.62-.73-5.2,1.25-8.62c1.7-4.09,4.35-7.65,7.13-11.22a24.4,24.4,0,0,0-5-2.59,32.14,32.14,0,0,0-5.62-1.46,65.44,65.44,0,0,0-12.73-.69c-4.45.17-9.2.47-13.84.85-2.34.16-4.71.29-7,.41s-4.55.19-6.78.16c-1.81,5.28-2.29,9.8-.1,12.31a40.12,40.12,0,0,1,6.54,17.24,82.25,82.25,0,0,1,.08,17.33,149.12,149.12,0,0,0-.73,17.77A46.3,46.3,0,0,0,879,215.5c1.22,2.5,4.06,5.13,6.76,7.33s5.29,4.13,5.94,5.38c2.58,8.07,1.06,15.73-.54,23.43s-3.23,15.37-.25,23.45c-.65,1.84,2.84,1.92,6.54,2.26s7.6.91,7.77,4c1.71,5.57,1.41,12,2,17.75s2.08,10.63,7.57,13A92.57,92.57,0,0,1,934,324.44a95.66,95.66,0,0,1,7.57,7.14,100.71,100.71,0,0,1,6.62,7.61c2.07,2.6,4,5.34,5.9,8s3.74,5.45,5.56,8.23l5.45,8.36,1.39,2.09a10.88,10.88,0,0,1,1.12,2.08l1.94,4.13c12.5-9.7,24.54-22.33,38.78-31.87A16.57,16.57,0,0,0,999.3,340.48Z"/><path class="cls-21" d="M744.26,37.19c-3.63.17-7.29.2-10.7,0s-6.7-.5-10-.92a85.69,85.69,0,0,1,9.5,6.93,77.89,77.89,0,0,1,19.14,23,92.84,92.84,0,0,1,7.08,17,153.73,153.73,0,0,1,4.2,18.29,4.69,4.69,0,0,0,2.21,3,24.81,24.81,0,0,0,5,2.63c2,.85,4.38,1.68,6.84,2.57s5,1.82,7.63,2.85a67.16,67.16,0,0,1,7.48,3.43,34.67,34.67,0,0,1,6.44,4.33c3.69,3.24,6.13,7.29,6.1,12.56-3.25,7.12-11.48,10-21.13,10.29,14,16.28,17.82,34.35,20.83,52s5,34.92,14.69,49.47a194.53,194.53,0,0,1,23.62,50.2c5.61,18.21,8.49,37.32,6.33,55.14a18.91,18.91,0,0,0,1.76,11,38.78,38.78,0,0,0,7.4,10.31c1.6,1.67,3.35,3.34,5.19,5s3.76,3.35,5.81,5l6.17,5.05,6.22,5.17,11.6-4.47c3.91-1.53,7.77-3,11.55-4.45-2.31-2.57-4.49-5.14-6.47-7.69-1-1.28-1.92-2.55-2.8-3.83s-1.66-2.58-2.4-3.87a36.42,36.42,0,0,1-5.18-15.52c-.67-34.76-9.49-59.33-34.82-83.23-4-4.6-2.58-13.5-.72-22.18s4.2-17.19,2.41-21a282.73,282.73,0,0,1-13.12-48.62c-2.93-15.72-4.9-31.35-7.48-48.33a75.25,75.25,0,0,0-2.56-14,166.1,166.1,0,0,0-5.39-16.15C815,94,802.38,92,790.56,84.53A42.48,42.48,0,0,1,784,83a34.09,34.09,0,0,1-5.38-2.21,25.74,25.74,0,0,1-7.68-6.1c-4-4.66-5.94-10.34-7.46-15.86S760.74,48,758.17,44A13.5,13.5,0,0,0,753,39.09,19.26,19.26,0,0,0,744.26,37.19Z"/><path class="cls-22" d="M914.73,312.12c-5.49-2.39-7-7.31-7.57-13s-.28-12.18-2-17.75c-.17-3.09-4.06-3.7-7.77-4s-7.19-.42-6.54-2.26c-3-8.08-1.32-15.76.25-23.45s3.12-15.36.54-23.43c-.65-1.25-3.23-3.17-5.94-5.38S880.17,218,879,215.5A46.3,46.3,0,0,1,874.51,197a149.12,149.12,0,0,1,.73-17.77,82.25,82.25,0,0,0-.08-17.33,40.12,40.12,0,0,0-6.54-17.24c-2.19-2.51-1.71-7,.1-12.31h-.17c5.11-10.12-5.28-12.56-8-13.26-13.38-3.28-17.6-10.09-27.49-18.32-2.09-1-4.22-1.82-6.37-2.59a166.1,166.1,0,0,1,5.39,16.15,75.25,75.25,0,0,1,2.56,14c2.58,17,4.55,32.61,7.48,48.33a282.73,282.73,0,0,0,13.12,48.62c1.79,3.83-.55,12.34-2.41,21s-3.26,17.58.72,22.18c25.33,23.9,34.15,48.47,34.82,83.23a36.42,36.42,0,0,0,5.18,15.52c.74,1.29,1.53,2.58,2.4,3.87s1.81,2.55,2.8,3.83c2,2.55,4.16,5.12,6.47,7.69,3.18-1.17,6.44-2.37,9.6-3.45s6.26-2.05,9.34-2.93c3.29-1.39,7.05.29,10,2.32a40.14,40.14,0,0,1,5.25,4.36c2.88-.49,5.68-1.1,8.4-1.8,1.36-.36,2.7-.73,4-1.13s2.67-.88,4-1.35q3.93-1.43,7.65-3.07c1.22-.55,2.52-1.11,3.63-1.7.81-.59,1.61-1.19,2.4-1.81L967.56,368a10.88,10.88,0,0,0-1.12-2.08l-1.39-2.09-5.45-8.36c-1.82-2.78-3.65-5.53-5.56-8.23s-3.83-5.43-5.9-8a100.71,100.71,0,0,0-6.62-7.61,95.66,95.66,0,0,0-7.57-7.14A92.57,92.57,0,0,0,914.73,312.12Z"/><path class="cls-23" d="M700.87,31.19c-4.32,1.05-9.54,2.11-13.65,2.07a17.55,17.55,0,0,1-6.87-.43,7.65,7.65,0,0,1-3.45-2.29c-1.64-1.84-2.43-4-5.27-4.58l2.21,2.45c-1.25-.37-2.54-.65-3.81-1,4.91,9.25,7.45,18.73,6,28.68a42.71,42.71,0,0,1,5,1,22.07,22.07,0,0,1,4.22,1.64,11,11,0,0,1,5.41,5.56c3.41,8.35,5.88,17,8.5,25.63,1.3,4.3,2.64,8.58,4.05,12.83s2.92,8.5,4.64,12.66c6.88,16.63,16.89,32.1,35.16,45.24,7.45,4.92,4.21,15.19,1.66,26.75s-4.47,24.41,4.79,34.43c6.17,6.71,20.4,10.5,19.5,22.83-2.53,15.86-18,30.5-6,44a203.72,203.72,0,0,1,38.71,52.45,145.44,145.44,0,0,1,6.37,14.5,117.82,117.82,0,0,1,4.63,14.78,93.79,93.79,0,0,1,2.56,29.84,31.06,31.06,0,0,0,6.52,2.47,41.14,41.14,0,0,0,7.31,1.12,55.81,55.81,0,0,0,7.85-.06,81.52,81.52,0,0,0,8.4-1.08c1.43-.25,2.86-.53,4.32-.86s3-.68,4.48-1.07q4.5-1.16,9.08-2.6c3.08-1,6.24-2,9.36-3.14s6.22-2.25,9.43-3.47l-6.22-5.17-6.17-5.05c-2-1.66-4-3.34-5.81-5s-3.59-3.35-5.19-5a38.78,38.78,0,0,1-7.4-10.31,18.91,18.91,0,0,1-1.76-11c2.16-17.82-.72-36.93-6.33-55.14a194.53,194.53,0,0,0-23.62-50.2c-9.73-14.55-11.69-31.82-14.69-49.47s-6.81-35.73-20.83-52c9.65-.29,17.88-3.17,21.13-10.29,0-5.27-2.41-9.32-6.1-12.56a34.67,34.67,0,0,0-6.44-4.33,67.16,67.16,0,0,0-7.48-3.43c-2.59-1-5.18-2-7.63-2.85s-4.82-1.72-6.84-2.57a24.81,24.81,0,0,1-5-2.63,4.69,4.69,0,0,1-2.21-3,153.73,153.73,0,0,0-4.2-18.29,92.84,92.84,0,0,0-7.08-17,77.89,77.89,0,0,0-19.14-23,85.69,85.69,0,0,0-9.5-6.93c-4-.52-7.74-1.27-11.52-2.13S704.52,32.32,700.87,31.19Z"/><path class="cls-24" d="M763,288.71c-12-13.55,3.42-28.19,6-44,.9-12.33-13.33-16.12-19.5-22.83-9.26-10-7.36-22.87-4.79-34.43s5.79-21.83-1.66-26.75c-18.27-13.14-28.28-28.61-35.16-45.24-1.72-4.16-3.24-8.38-4.64-12.66s-2.75-8.53-4.05-12.83c-2.62-8.6-5.09-17.28-8.5-25.63a11,11,0,0,0-5.41-5.56,22.07,22.07,0,0,0-4.22-1.64,42.71,42.71,0,0,0-5-1,43,43,0,0,1-3.61,12.05c-1.22,3.76,2.88,8.59,8,13.8s11.27,10.78,14.71,15.84c1.35,7.72-1,13.88-5.1,19.24s-9.91,10-15.53,14.57l-5.32,6a9.85,9.85,0,0,0-.43-1.21c-1.48,1.28-2.91,2.57-4.23,3.88A113.56,113.56,0,0,1,673,152a7.19,7.19,0,0,1,3.44,1.55l-2,.89a63.18,63.18,0,0,1,7.44,18.79,48.23,48.23,0,0,0,5.6,16.66,13.23,13.23,0,0,1,4.55.63,5.19,5.19,0,0,0-3.52,1.15,85.29,85.29,0,0,0,8.35,11.48c3,3.61,6.2,7.16,9.22,10.78a88.65,88.65,0,0,1,8.3,11.65,51.53,51.53,0,0,1,5.61,14c1.48,9.92,9.8,20,16.17,31.33,3.19,5.65,5.93,11.62,7.05,17.92A34.14,34.14,0,0,1,740.83,309c2.62-1,5,1,7.4,3.11s4.86,4.18,7.52,3.18a72.58,72.58,0,0,0-5,17c.83,1.65,1.74,3.25,2.62,4.82s1.79,3.1,2.56,4.59c1.53,3,2.59,5.81,2.37,8.52-2.35,5.28-5.44.95-9-.84,0,1.49,0,3,0,4.47l1,1.71a15.63,15.63,0,0,0,7.56-1.5c3.44-3.64,7.26-7.09,10.36-10.29a20.3,20.3,0,0,1-4.41,6.22,22,22,0,0,1-6,4.07,74.52,74.52,0,0,0-5,5.79,99.53,99.53,0,0,0,13.06,17.4,35.27,35.27,0,0,0,4.14-1c-1.15.38-2.44.87-3.79,1.38.71.73,1.43,1.47,2.17,2.18,5.64-1.91,17-5.67,28.79-9.45,1.46,8.08,3.73,14.42,6.87,19.32a31.89,31.89,0,0,0,5.14,6.3,27,27,0,0,0,6.2,4.33,93.79,93.79,0,0,0-2.56-29.84,117.82,117.82,0,0,0-4.63-14.78,145.44,145.44,0,0,0-6.37-14.5A203.72,203.72,0,0,0,763,288.71Z"/></g></g><path class="cls-25" d="M618.38,307.45c0,14.58-9.86,22.29-21.86,22.28-12.41,0-21.12-8.69-21.11-21.51,0-13.44,9.31-22.23,21.86-22.21C610.11,286,618.4,294.89,618.38,307.45Zm-36.48.65c0,9,5.42,17.16,15,17.17s15.07-8,15.08-17.57c0-8.42-4.86-17.22-15-17.23S581.91,298.81,581.9,308.1Z"/><path class="cls-25" d="M665.87,310.52c-.34-5.9-.75-13-.67-18.28H665c-1.61,5-3.57,10.24-6,16.08l-8.32,20.53h-4.61l-7.58-20.18c-2.22-6-4.1-11.44-5.42-16.46H633c-.14,5.27-.5,12.37-.93,18.72l-1.27,18.15H625l3.33-42.33h7.74l8,20.49c1.94,5.22,3.54,9.87,4.72,14.27H649a149.35,149.35,0,0,1,5-14.26l8.39-20.47h7.75L673,329.13H667Z"/><path class="cls-25" d="M736.73,310.61c-.34-5.91-.75-13-.68-18.28h-.2c-1.61,5-3.57,10.23-6,16.07l-8.32,20.53H717l-7.58-20.18c-2.22-6-4.1-11.43-5.42-16.46h-.14c-.14,5.27-.5,12.37-.93,18.72l-1.27,18.15h-5.79l3.33-42.33h7.74l8,20.49c2,5.21,3.55,9.86,4.73,14.26h.21a148.29,148.29,0,0,1,5-14.25l8.39-20.47h7.74l2.88,42.34H737.9Z"/><path class="cls-25" d="M759.29,286.89l0,42.34h-6.07l.05-42.34Z"/><path class="cls-25" d="M805.62,327.4a48.49,48.49,0,0,1-14.44,2.31c-7.12,0-13-1.65-17.57-5.62-4-3.52-6.55-9.18-6.54-15.77.08-12.63,9.72-21.85,25.48-21.83a31.79,31.79,0,0,1,11.72,2l-1.47,4.46a26.73,26.73,0,0,0-10.39-1.84c-11.44,0-18.91,6.39-18.92,17s7.16,17.1,18.11,17.11c4,0,6.7-.49,8.09-1.12l0-12.63h-9.56V307h15.48Z"/></svg>
