<?xml version="1.0" encoding="utf-8"?>
<!-- Generator: Adobe Illustrator 23.0.4, SVG Export Plug-In . SVG Version: 6.00 Build 0)  -->
<svg version="1.1" id="Lag_1" xmlns="http://www.w3.org/2000/svg" xmlns:xlink="http://www.w3.org/1999/xlink" x="0px" y="0px"
	 viewBox="0 0 1487 581" style="enable-background:new 0 0 1487 581;" xml:space="preserve">
<style type="text/css">
	.st0{fill:#FFFFFF;}
	.st1{fill:none;stroke:#9A8888;stroke-width:4;stroke-miterlimit:10;}
	.st2{opacity:0.9;}
	.st3{fill:#FEF6F3;}
	.st4{fill:#FDEFE9;}
	.st5{fill:#FEF5F1;}
	.st6{fill:#FAD1BF;}
	.st7{fill:#FBD7C8;}
	.st8{fill:#FBD3C2;}
	.st9{fill:#FBDACC;}
	.st10{fill:#FCE5DB;}
	.st11{fill:#FCE1D6;}
	.st12{fill:#FDE9E1;}
	.st13{fill:#FDF0EA;}
	.st14{fill:#FDF7F5;}
	.st15{fill:#FCF1ED;}
	.st16{fill:#FDF6F3;}
	.st17{fill:#F6D6CB;}
	.st18{fill:#F7DCD2;}
	.st19{fill:#F7D8CE;}
	.st20{fill:#F8DED5;}
	.st21{fill:#FAE8E2;}
	.st22{fill:#F9E5DD;}
	.st23{fill:#FBECE7;}
	.st24{fill:#FCF1EE;}
	.st25{fill:#91817B;}
	.st26{font-family:'MyriadPro-Regular';}
	.st27{font-size:62.8213px;}
</style>
<g>
	<path class="st0" d="M38.3,114"/>
	<g>
		<path class="st1" d="M38.3,114"/>
	</g>
</g>
<g>
	<path class="st0" d="M28.5,400.5c21.1-11.6,40.2-26.6,61.6-38.3c49.3-26.9,99.9-51,154.3-66c59.2-16.3,122.7-25.3,183.7-30.8
		c64.1-5.8,128.5-8.9,192.9-8.8c61.3,0.1,121.7,0.2,182.7,7.8c77.1,9.6,155.2,17,231.9,29.1c86.5,13.6,173.8,21.3,260.8,31.3
		c57.1,6.5,113.8,7.8,171.2,7.8"/>
	<g>
		<g>
			<g class="st2">
				<g class="st2">
					<path class="st3" d="M155.1,351.2c-2.6,0.7-5.2,1.4-7.9,2.1c2.2,4,3.6,8.7,4,14.4c-5.2,10.2,21.1-1.7,50.7-10.8
						c-1.2-4.7-4.8-8-12.2-9.2C182.3,346.4,171.2,347.2,155.1,351.2z"/>
					<path class="st4" d="M-3.2,326.4c-1.6,3.1-3,6-4.4,8.8c0.4,0.2,0.8,0.3,1.3,0.6c0.5-1.6,1-3.1,1.5-4.7c0.3-0.8,0.5-1.6,0.8-2.3
						C-3.8,328-3.5,327.2-3.2,326.4z"/>
					<path class="st3" d="M60.2,370.4c9.4-4.5,16.4-9.3,22.9-13.8c3.3-2.3,6.3-4.5,9.3-6.7c3-2.2,6.1-4.3,9.3-6.3
						c-9.5,0-17.9-1.2-24.8-4.5c-8.6-2.7-19.5-3-31-2c-5,5.2-11.9,12.1-18.7,16c2.3-0.2,3.6-0.3,4.7-1c1.1-0.6,2.1-1.8,4.2-4.1
						c-4,4.5-11.9,13.5-11.9,13.5c2.7,1.9,9.4,0.4,17.5-3.1c8.1-3.5,17.5-9,25-14.1c-4,3.9-8.5,8.7-12.9,13.5
						c-4.4,4.8-8.7,9.8-12.6,14.1c3.6,0.1,7.5,0,11.4-0.3c4.1-1.8,8.3-3.9,11.8-5.9L60.2,370.4z"/>
					<path class="st3" d="M282.9,395.2c-1.6-0.4-3.2-0.7-4.7-1.2c-1.1,1-2.3,2-3.5,3c-0.6,0.5-1.2,1-1.9,1.5c-0.6,0.5-1.2,1-1.7,1.5
						c-1.2,1-2.4,1.9-3.6,2.9c-1.2,0.9-2.4,1.9-3.7,2.9c2.5,0.6,5,1.3,7.4,1.9c1.2,0.3,2.5,0.7,3.7,1c1.3,0.3,2.6,0.6,3.9,1
						c2.5-2,5.6-4.1,8.9-6.2c0.7,1,1.4,1.9,2.1,2.8c-0.2,1.6-0.7,3.2-3.2,5.2c0.2,0,0.4,0.1,0.6,0.1c3,0.7,6,1.5,9.1,2.2
						c-1.2-1.2-2.3-2.4-3.3-3.6c4.2-0.6,8.7-0.5,12.1-1.1c3.5-0.5,6-1.7,6.4-4.7C308.4,399.6,294.7,397.9,282.9,395.2z"/>
					<path class="st5" d="M431.6,387.3c-1.7-5.7-2-11.6-0.2-17.8c-10.9,4.3-28.2-2.9-38.9,1.7c2.1-8-1.6-14.2-8.8-19.2
						c-7.2-5-17.8-8.7-29.4-11.8c-11.6-3.1-24.1-5.3-35-7.7c-5.5-1.2-10.6-2.4-14.9-3.8c-2.2-0.7-4.2-1.4-6-2.2
						c-1.8-0.8-3.4-1.6-4.7-2.5c-13.3-7-31.8-9.5-50.9-10.2c-19.1-0.8-39.1,0.6-56-0.6c-2.4,2.4-2.8,4.7-4,7.1
						c-0.6,1.2-1.4,2.4-2.8,3.6c-1.4,1.2-3.3,2.5-6.1,4c8.2,0.5,16.4-1.7,24.7-6.8c1.6-1,3.2-1.9,4.7-3.1c-1.6,1.1-3.2,2.1-4.7,3.1
						c-3,1.9-6.1,3.5-9.4,5.1c-3.3,1.6-6.7,3.2-10.5,5c2.8-0.6,4.9-0.4,4.9,1.6c-1,1.7-2.4,2.9-4.1,3.9c15.4,0.9,29.9,2.9,41.4,7.2
						c2.9,1.1,5.6,2.3,8,3.7c2.5,1.4,4.7,2.9,6.7,4.7c4,3.4,7,7.5,8.9,12.4c2.4-0.2,4.9-0.4,7.3-0.6c3.7-0.3,7.1-0.4,10.2-0.4
						c1.5,0,3.1,0,4.6,0.1c1.5,0.1,2.9,0.1,4.2,0.3c5.4,0.4,9.7,1.4,13.1,2.6c6.8,2.5,9.7,6.4,10.2,11.1c17.8-2.6,37.3-4.2,51-2.6
						c22.6,4.4,42.9,11.9,63.5,19.7c3.2-1.5,6.5-3,9.5-4.5c3.1-1.5,6.1-3.1,8.9-4.8C428.3,386,429.9,386.7,431.6,387.3z"/>
					<path class="st6" d="M1467.5,313.7c-3.8-16-23.3-32.8-50-46.3c-13.4-6.7-28.5-12.7-44.5-17.4c-16-4.7-32.9-8.1-49.9-9.9
						c-18.7-3.2-37.3-6.3-56.1-9.5c-19.1-3.1-38.4-6.3-57.7-9.4c-38.5-6.2-76.9-12.5-115.7-19.4c4.7,7.7,4.4,15.3-1.6,21.6
						c-3,3.1-7.3,6-13.2,8.3c-5.8,2.3-13.2,4.1-22.1,5.1c-2.3,0.3-4.7,0.2-7.3,0c-2.6-0.2-5.2-0.7-8.1-1.3c-5.8-1.2-11.7-3-17.4-4.6
						c-5.6-1.7-11-3.2-15.4-4.1c-4.4-0.9-8-1.1-10.1,0c-22.2,2.7-36.4,7.1-51.5,10.9c-15.1,3.8-31.2,6.9-57,7.4
						c8.2,5.4,8.2,15.4,18.5,17.2c13.4,6.3,28.9,11.6,46.4,14.6c17.5,3,37.1,3.7,59,1.1c6.2-0.7,14.9,4.1,18.3,9.1
						c3.4,5,1.6,10.1-12.8,10.1c17.2,4.7,32.3,6.4,46.2,7.2c13.9,0.8,26.9,0.8,40.3,2.3c19.1,1.6,30,4.1,36.1,7.5
						c6,3.4,7.2,7.6,6.7,12.2c-1.1,9.3-8.9,20.4,2.5,30.4c3.5,5.1,8.9,9,15.7,11.9c27.3-3.8,53.6-9,79.6-14.2
						c13-2.6,26-5.2,38.9-7.6c3.3-0.6,6.5-1.2,9.8-1.8c3.3-0.6,6.6-1.2,10-1.7c6.6-1.2,13.2-2.3,19.9-3.5c6.2-1.1,13.6,0.9,21,2.8
						c7.4,1.9,14.8,3.8,21,2.4c11.4-0.7,23.8-2.3,35.9-4.4c12-2.1,23.7-4.8,33.8-7.9C1456.6,326.9,1470.3,319.8,1467.5,313.7z"/>
					<path class="st7" d="M771,167.2c1.9-0.4,3.9-0.8,5.9-1.2c2-0.3,4-0.7,6-0.9c4.1-0.6,8.2-1.1,12.5-1.4c4.2-0.4,8.5-0.6,12.9-0.7
						c2.2-0.1,4.4-0.1,6.6-0.1c2,0,4-0.1,6-0.1l-4.2-1.6c-1.6-0.6-3.2-1.1-4.8-1.7c-3.2-1.1-6.5-2.3-9.7-3.4
						c-3.2-1.1-6.4-2.2-9.7-3.2c-3.2-1-6.4-2.1-9.6-3.1c-12.8-4.1-25.5-8-38.1-11.5c-3.6,1.4-7.1,2.8-10.6,4.3
						c-3.5,1.4-7,2.9-10.2,4.4C743.2,150.3,759.9,156.7,771,167.2z"/>
					<path class="st7" d="M1098.6,367.5c4.3-7.2,1.2-11.8-4.8-16.4c-6-4.6-14.8-9.3-21.9-16.7c-9.4,1.2-18.1,1.5-26.1,1.2
						c-4-0.2-7.8-0.6-11.4-1.1c-1.8-0.3-3.6-0.6-5.3-1c-1.7-0.4-3.3-0.7-4.9-1.2c-12.7-3.5-23.2-9.6-32.1-18.5
						c-2.1,3.6-16.3-1.2-22.5-0.4c2.1-3.6-10-11.9,2.3-13.6c-12.3,1.7-24.6-6.6-32.8-2.1c-18.4-7.3,16.6-9,4.3-17.2
						c-35.1,6.6-65.5,0.5-83.8-9.7c-18.3-10.2-24.3-24.3-10.9-32.9c10.3-8.2,28.9-10.9,41.3-22.8c12.4-11.8,45.6-0.1,70.6,6.5
						c-6.2-9.2-41.7-17.5-20.7-23.7c20-2.8,42.5-6.7,57-12.8c-27.1-2.8-56.9-3.3-83.2-4.2c-26.3-0.9-49.1-2.3-62.6-6.6
						c-10.3-3.9-20.4-7.7-30.4-11.7c-2,0-4,0.1-6,0.1c-2.2,0-4.4,0.1-6.6,0.1c-4.4,0.1-8.7,0.4-12.9,0.7c-4.2,0.3-8.4,0.8-12.5,1.4
						c-2,0.3-4,0.6-6,0.9c-2,0.4-3.9,0.7-5.9,1.2c-11.1-10.5-27.8-17-47-20.4c-7.9,3.6-14.6,7.4-18.1,11.6c-4.6,3.6-3.8,6.4,0.2,8.7
						c2,1.2,4.8,2.3,8.2,3.3c3.4,1,7.3,2.1,11.5,3.1c16.8,4,38.2,8.5,46.2,15.6c-18.3,0.5-32.6,3-43.5,6.5
						c-10.9,3.5-18.3,8.1-22.8,13.1c-9,10.1-6.2,22.2,5.1,33c7.9,6.6,16.1,12.4,25.7,17.9c9.6,5.5,20.6,10.8,34,16.7
						c7.2,2,15.8,3.9,24.8,5c2.3,0.3,4.5,0.5,6.9,0.7c2.4,0.2,4.8,0.3,7.2,0.3c4.8,0.1,9.6-0.2,14.2-0.9c-6.2,0.9-24.9,3.5-20.8,6.2
						c33,12,45.5,30.1,90.8,30c-2.1,3.6,2,6.3-10.3,8.2c24.7-3.7,8.2,15.4,32.8,11.8c10.1,11.8,3.9,32.6,36.1,34.6
						c9.1,0.1,15.8,1.1,21.9,2.5c11.8-1.7,23.9-2.9,36.8-3.3c3.2-0.1,6.4-0.1,9.7-0.1c0.8,0,1.7,0,2.5,0c0.9,0,1.8,0,2.7,0.1
						c1.8,0.1,3.6,0.1,5.5,0.2c7.4,0.3,14.9,0.7,22.7,1.4c22.5,1.9,44,1.8,64.8,0.6C1108.6,372.4,1099.7,370.9,1098.6,367.5z"/>
					<path class="st8" d="M1151,356.9c-11.4-10-3.6-21.1-2.5-30.4c0.5-4.6-0.6-8.8-6.7-12.2c-6.1-3.4-17-5.9-36.1-7.5
						c-13.4-1.5-26.3-1.5-40.3-2.3c-13.9-0.8-29-2.5-46.2-7.2c14.4,0.1,16.2-5.1,12.8-10.1c-3.4-5-12-9.9-18.3-9.1
						c-21.9,2.5-41.5,1.8-59-1.1c-17.5-3-33-8.2-46.4-14.6c-10.3-1.8-10.3-11.8-18.5-17.2c25.8-0.5,41.9-3.7,57-7.4
						c15.1-3.8,29.3-8.2,51.5-10.9c2.1-1.1,5.7-0.9,10.1,0c4.4,0.9,9.8,2.4,15.4,4.1c5.6,1.6,11.6,3.4,17.4,4.6
						c2.9,0.6,5.6,1.1,8.1,1.3c2.6,0.2,5,0.3,7.3,0c8.9-1.1,16.2-2.9,22.1-5.1c5.9-2.3,10.2-5.1,13.2-8.3c5.9-6.3,6.2-13.9,1.6-21.6
						c-13.8-2.4-27.5-5-41.4-7.6c-3.8-0.7-7.6-1.4-11.5-2.1c-3.9-0.7-7.7-1.4-11.6-2.1c-7.8-1.4-15.5-2.6-23.4-3.9
						c-2.9-0.3-5.8-0.6-8.7-0.9c-14.5,6.1-37,10-57,12.8c-21,6.3,14.5,14.6,20.7,23.7c-25.1-6.6-58.2-18.3-70.6-6.5
						c-12.4,11.8-31,14.6-41.3,22.8c-13.4,8.6-7.4,22.7,10.9,32.9c18.3,10.2,48.7,16.4,83.8,9.7c12.3,8.2-22.7,9.9-4.3,17.2
						c8.3-4.5,20.5,3.7,32.8,2.1c-12.3,1.7-0.2,10-2.3,13.6c6.1-0.8,20.3,3.9,22.5,0.4c8.9,8.8,19.4,14.9,32.1,18.5
						c1.6,0.4,3.2,0.8,4.9,1.2c1.7,0.4,3.5,0.7,5.3,1c3.6,0.5,7.5,0.9,11.4,1.1c8,0.3,16.6,0,26.1-1.2c7.1,7.5,16,12.1,21.9,16.7
						c6,4.6,9.1,9.2,4.8,16.4c1,3.4,10,4.8,20.2,6.1c16.4-1,32.3-2.6,47.9-4.8C1159.9,365.9,1154.5,362,1151,356.9z"/>
					<path class="st9" d="M952.2,372.3c-32.2-2-26-22.8-36.1-34.6c-24.6,3.6-8.1-15.4-32.8-11.8c12.4-1.8,8.2-4.6,10.3-8.2
						c-45.3,0.1-57.8-18-90.8-30c-4.1-2.8,14.6-5.3,20.8-6.2c-4.7,0.7-9.5,0.9-14.2,0.9c-2.4,0-4.8-0.1-7.2-0.3
						c-2.4-0.2-4.6-0.4-6.9-0.7c-9.1-1.1-17.7-2.9-24.8-5c-13.3-5.9-24.4-11.2-34-16.7c-9.6-5.5-17.8-11.2-25.7-17.9
						c-11.3-10.9-14.1-22.9-5.1-33c4.5-5.1,11.9-9.6,22.8-13.1c10.9-3.5,25.2-6,43.5-6.5c-8.1-7.1-29.5-11.6-46.2-15.6
						c-4.2-1-8.1-2-11.5-3.1c-3.4-1-6.2-2.1-8.2-3.3c-4-2.4-4.9-5.2-0.2-8.7c3.5-4.2,10.2-8,18.1-11.6c-23.4-4.2-50.5-3.9-77.1-2
						c-6.6,0.5-13.3,1-19.8,1.6c-6.8,0.7-13.6,1.3-20.3,2c-13.6,1.4-26.8,2.9-39.4,4.2c-1.5,5.6,0.3,10,8.1,11.8
						c14.8,4.5,23.7,9.6,29.5,15c5.8,5.4,8.5,11.1,10.7,16.9c2.2,5.8,4.2,11.7,8.2,17.5c4,5.8,10.2,11.6,21.3,17.3
						c8.8,4.5,34.2,8.1,38.6,10.5c10.1,7.6,9.2,15.5,8.4,23.3c-0.9,7.8-1.6,15.7,8.2,23.4c-0.9,1.9,7.2,1.6,15.8,1.7
						c4.3,0,8.7,0.2,12.2,0.7c3.5,0.5,6.1,1.4,6.7,3c5.3,5.6,6.1,12.1,8.6,17.8c1.2,2.9,2.9,5.6,5.7,7.8c2.8,2.3,6.7,4.2,12.5,5.5
						c4,1,7.7,2.1,11.3,3.2c3.6,1.1,6.9,2.3,10.2,3.6c3.2,1.2,6.2,2.5,9.1,3.8c0.7,0.3,1.4,0.7,2.1,1c0.8,0.3,1.6,0.7,2.3,1
						c1.5,0.7,3,1.4,4.5,2.1c11.8,5.6,21.3,11.5,29.6,17.6c16.5,12.1,27.7,25,40.8,37.5c35.7-5.6,67.2-14.9,102.5-19.9
						C968,373.4,961.4,372.4,952.2,372.3z"/>
					<path class="st10" d="M179.5,140.3c-18,7.5-34.1,14.2-49.2,20.3c18.8-3.9,36-6,51.3-6.6c3.9-0.1,7.5-0.2,11.2-0.2
						c3.6,0,7.2,0.1,10.6,0.3c1.7,0.1,3.3,0.2,4.8,0.4c1.6,0.2,3.1,0.3,4.6,0.5c3,0.4,5.9,0.8,8.7,1.3c22.4,4,39,11.5,53.7,20.6
						c2.4,1.6,10.5,1,21.6-0.3c11.1-1.3,25.1-3.2,39.3-4.6c28.4-2.7,57.2-2.6,64.9,6.9c-0.7,2-2.3,3.9-4.8,5.8
						c-2.5,1.9-5.8,3.6-9.7,5.3c-3.9,1.7-8.5,3.3-13.6,4.9c-5.1,1.6-10.6,3-16.4,4.5c23.3,3.1,40.6,8.6,54.6,15
						c14,6.4,24.7,13.7,34.6,21.1c19.9,14.8,36.9,29.7,69.6,39.8c32.8,10.1,62.4,24.4,84.2,40.8c5.4,4.1,10.4,8.3,14.8,12.6
						c2.2,2.2,4.3,4.3,6.2,6.5c2,2.2,3.9,4.4,5.6,6.6c6.9,8.9,11.3,17.9,12.7,26.8c0.8,7.8,12.1,13.7,27.1,19.3
						c15,5.6,33.5,10.9,49.3,17.2c12.8-3.6,25.5-7,37.8-9.7c-16.6-10.5-31.7-20.1-35.5-30.5c-4.9-17.3-13.7-32-30.4-44.7
						c-8.4-6.3-18.7-12.1-31.4-17.5c-6.4-2.7-13.4-5.2-21.1-7.7c-3.8-1.2-7.9-2.4-12-3.6c-4.2-1.2-8.4-2.3-12.9-3.4
						c-11.6-3.6-13.2-12.5-13.5-21.4c-0.3-8.9,0.7-17.7-6-21c-25.9-14.9-46-28.6-64.2-42.4c-18.3-13.8-34.7-27.5-53.8-42.1
						c-7.6-7.4-23.4-16-42.9-24c-4.1,0.2-8.2,0.5-12.2,0.7l-12.5,0.9l-25.1,2.2c-16.8,1.5-33.9,2.9-51.3,3.3
						c-24.8,4.6-42.2,5.7-55.3,4.6c-13.2-1.1-22.1-4.3-30.1-7.7c-4-1.7-7.7-3.4-11.5-4.8c-3.9-1.5-7.9-2.6-12.5-3.2
						c-4.6-0.6-9.8-0.5-16,0.4c-3,0.4-6.7,1.3-10.6,2.4c-2,0.5-4,1.2-6.1,1.9C184,138.6,181.8,139.4,179.5,140.3z"/>
					<path class="st11" d="M761.8,324.9c-5.8-1.3-9.7-3.2-12.5-5.5c-2.8-2.3-4.4-5-5.7-7.8c-2.5-5.7-3.3-12.3-8.6-17.8
						c-0.6-1.6-3.2-2.5-6.7-3c-3.5-0.5-7.9-0.7-12.2-0.7c-8.6-0.1-16.7,0.2-15.8-1.7c-9.8-7.7-9-15.5-8.2-23.4
						c0.8-7.8,1.7-15.7-8.4-23.3c-4.4-2.3-29.8-6-38.6-10.5c-11-5.6-17.2-11.4-21.3-17.3c-4-5.9-5.9-11.7-8.2-17.5
						c-2.3-5.8-5-11.5-10.7-16.9c-5.8-5.4-14.7-10.5-29.5-15c-7.8-1.8-9.5-6.2-8.1-11.8c-0.1,0-0.3,0-0.5,0.1
						c3.8-5.6-2.2-8.2-10.1-9.4c-4-0.6-8.4-0.8-12.4-0.8c-4,0-7.4,0.1-9.4,0.2c-19.7,0.8-33.6,0.2-46.5-1.1
						c-12.9-1.3-24.9-3.3-40.9-4.8c-6.1,0-12.2,0.3-18.3,0.5c19.4,8.1,35.3,16.7,42.9,24c19.1,14.6,35.6,28.3,53.8,42.1
						c18.2,13.8,38.3,27.5,64.2,42.4c6.7,3.2,5.7,12.1,6,21c0.3,8.9,1.9,17.8,13.5,21.4c4.5,1.1,8.7,2.3,12.9,3.4
						c4.2,1.2,8.2,2.4,12,3.6c7.7,2.4,14.7,5,21.1,7.7c12.8,5.3,23.1,11.1,31.4,17.5c16.7,12.7,25.5,27.4,30.4,44.7
						c3.8,10.4,19,20.1,35.5,30.5c10.4-2.3,20.7-4.2,30.5-5.3c1.3-0.3,2.7-0.3,4-0.2c1.6,0.1,3.4,0.4,5,0.8c3.4,0.8,6.7,2,9.6,3.3
						c5.8,2.5,10,5.3,10,5.3c21.7,0.1,41.1-1.9,59.2-4.7c-13.1-12.5-24.4-25.4-40.8-37.5c-8.2-6.1-17.8-12-29.6-17.6
						c-1.5-0.7-3-1.4-4.5-2.1c-0.8-0.3-1.5-0.7-2.3-1c-0.7-0.3-1.4-0.7-2.1-1c-2.9-1.3-5.9-2.6-9.1-3.8c-3.2-1.2-6.6-2.4-10.2-3.6
						C769.5,327,765.7,325.9,761.8,324.9z"/>
					<path class="st12" d="M79.1,181c-4,2.7-8.1,5.7-12.4,8.5c-4.3,2.8-8.4,5.5-12.4,7.7c-11.1,7.1-16.4,8.5-20.6,8.7
						c-4.1,0.3-6.8-0.6-12.2,1.9l5.4-0.4c-2.4,1-4.9,2.1-7.3,3.2c7.2,1.1,13.5,2.9,18.4,5.5c5,2.6,8.7,6.1,10.6,10.8
						c13.6-6.7,26.1-11.1,33.3-9.5c6.2,1.4,12.1,3,18,4.8c2.9,0.9,5.8,1.8,8.7,2.7c2.9,0.9,5.8,1.8,8.7,2.8
						c11.6,3.7,23.7,7.3,37.4,10c13.8,2.7,29.5,4.4,48.5,4.9c4.8,0.1,9.8,0.2,15,0.2c5.2,0.1,10.8-0.1,16.3-0.1
						c11.2-0.2,23.3-0.6,36.6-1.3c10.7-0.8,16.1,1.8,19.1,5.8c3,4,3.7,9.7,5,15.4c1.3,5.8,3.2,11.7,8.5,16.5
						c5.3,4.8,13.9,8.3,28.6,9.7c4.9,0.4,10.8,0.5,17.1,0.5c6.3,0,12.9-0.1,19.1,0.2c6.2,0.3,12.1,0.9,16.7,2.1
						c4.7,1.3,8.2,3.2,9.9,6c2.8,7.7-2.4,16.9-3.4,24.8c-0.5,4,0,7.6,3,10.7c1.5,1.5,3.6,2.9,6.5,4c2.9,1.2,6.6,2.2,11.3,3
						c11.8,1.5,23.2,3.4,34.4,5.6c11.2,2.2,22,4.6,32.3,7.4c20.6,5.5,39.1,12.1,54.9,19.5c31.7,14.9,52.4,33.1,58,52.7
						c8.9,1,18.1,1.1,27.7,0.4c10.4-0.7,21.2-2.2,31.8-4.3c21.4-4.1,42.8-10.2,63.7-16c-15.8-6.3-34.3-11.6-49.3-17.2
						c-15-5.6-26.3-11.6-27.1-19.3c-1.5-9-5.9-18-12.7-26.8c-1.7-2.2-3.6-4.4-5.6-6.6c-1.9-2.2-4-4.4-6.2-6.5
						c-4.4-4.3-9.4-8.5-14.8-12.6c-21.8-16.4-51.4-30.7-84.2-40.8c-32.8-10-49.7-25-69.6-39.8c-10-7.4-20.6-14.7-34.6-21.1
						c-14-6.4-31.3-11.9-54.6-15c5.8-1.5,11.3-2.9,16.4-4.5c5-1.5,9.6-3.2,13.6-4.9c3.9-1.7,7.2-3.5,9.7-5.3
						c2.5-1.8,4.1-3.8,4.8-5.8c-7.7-9.5-36.4-9.6-64.9-6.9c-14.2,1.3-28.2,3.2-39.3,4.6c-11.1,1.3-19.3,1.9-21.6,0.3
						c-14.7-9.1-31.3-16.5-53.7-20.6c-2.8-0.5-5.7-0.9-8.7-1.3c-1.5-0.2-3-0.4-4.6-0.5c-1.6-0.2-3.1-0.3-4.8-0.4
						c-3.4-0.2-6.9-0.3-10.6-0.3c-3.7,0-7.3,0.1-11.2,0.2c-15.4,0.6-32.5,2.7-51.3,6.6C112,168.1,95.2,174.8,79.1,181z"/>
					<path class="st13" d="M412.7,340.1c-4.7-0.8-8.4-1.8-11.3-3c-2.9-1.2-5-2.5-6.5-4c-3-3-3.5-6.7-3-10.7c1-7.9,6.1-17.1,3.4-24.8
						c-1.7-2.9-5.2-4.8-9.9-6c-4.7-1.2-10.5-1.9-16.7-2.1c-6.2-0.3-12.8-0.2-19.1-0.2c-6.3,0-12.2,0-17.1-0.5
						c-14.7-1.4-23.3-4.9-28.6-9.7c-5.3-4.8-7.2-10.7-8.5-16.5c-1.3-5.8-2-11.4-5-15.4c-3-4-8.4-6.5-19.1-5.8
						c-13.3,0.7-25.4,1.1-36.6,1.3c-5.5,0-11.1,0.2-16.3,0.1c-5.2,0-10.2-0.1-15-0.2c-19.1-0.5-34.7-2.2-48.5-4.9
						c-13.8-2.7-25.8-6.3-37.4-10c-2.9-0.9-5.8-1.9-8.7-2.8c-2.9-0.9-5.8-1.8-8.7-2.7c-5.9-1.8-11.8-3.4-18-4.8
						c-7.2-1.6-19.8,2.8-33.3,9.5c1.5,3.7,2,8,1.1,13.3c0.1,2.1,2.8,3,7.2,3.2c2.2,0.1,4.8,0,7.6-0.2c2.9-0.2,6.1-0.5,9.4-0.9
						c13.4-1.6,29.7-4.1,40.5-4.2c8.4,4.4,7.8,11.7,3.1,20.4c-4.7,8.6-13.4,18.7-21.7,28.8c-2.2,3.5-4.5,7.1-6.7,10.8
						c-0.6-0.2-1.1-0.3-1.7-0.4c-2.1,2.7-4.2,5.3-5.9,7.9c8.7-0.6,17.1-1,25.1-0.9c2.4-1.2,5.2-2.2,8.3-2.9c-1,0.8-2.2,1.9-3.6,3
						c5.6,0.3,10.9,0.8,15.8,1.7c4.9,0.9,9.4,2.2,13.4,3.9c6.6,3.8,15,5.5,24.5,6.2c3.3-1.7,6.7-3.3,10.6-4.6
						c-3.5,1.7-5.6,3.3-7,4.8c8.5,0.3,17.8,0.1,27.3-0.4c4.8-0.1,9.6-0.5,14.5-0.6c2.4-0.1,4.9-0.1,7.3-0.2c2.4,0,4.9,0,7.3,0
						c2.4,0,4.8,0,7.2,0.1c2.4,0.1,4.7,0.2,7,0.3c4.7,0.4,9.1,0.8,13.5,1.5c8.7,1.4,16.7,3.6,23.5,6.9c2.7,1.8,6.5,3.2,10.9,4.5
						c4.4,1.3,9.5,2.4,15,3.5c11,2.1,23.5,4.3,35.1,7.1c11.6,2.8,22.3,6.4,29.5,11.3c7.2,4.9,11,11.1,9.1,19.1
						c5.3-2.4,12.3-1.8,19.3-1.3c3.5,0.3,7,0.6,10.3,0.6c3.3,0,6.4-0.4,9.1-1.5c-1.8,6.3-1.3,12.1,0.4,17.8
						c12.1,4.3,26.4,7.6,29.3,12.7c-1.9,5.9-11.6,3.3-20.8,3.4c1,1.4,2,2.7,3,4c1.1,0.4,2.2,0.7,3.3,1.1c5.5-0.9,10.9-2.6,15.9-4.8
						c5.5-4.9,11.6-9.7,16.5-14c-1.7,5.3-8.2,10.3-16.5,14c-2.8,2.5-5.5,5.1-7.5,7.6c3.1,1,6.3,1.9,9.6,2.9c3.3,0.9,6.6,1.8,10,2.7
						c6.8,1.7,13.8,3.3,21.1,4.8c2.8-0.8,5.7-1.7,8.3-2.6c-2.2,0.8-4.7,1.8-7.3,2.8c2,0.4,4,0.8,6,1.1c5.5-2,13.7-5,23.4-8.4
						c9.7-3.4,20.7-7.2,31.8-10.9c15,14.4,32.3,21.3,51.4,23.5c-5.6-19.6-26.3-37.8-58-52.7c-15.8-7.4-34.4-14-54.9-19.5
						c-10.3-2.8-21.1-5.2-32.3-7.4C435.9,343.5,424.4,341.6,412.7,340.1z"/>
				</g>
			</g>
		</g>
	</g>
</g>
<g>
	<path class="st0" d="M368.2,516.4c15.2-5.7,28.8-22.5,42-31.8c24.3-17.2,49.4-35.3,76.1-48.4c26.8-13.2,53.9-21.5,81.8-31.7
		c40.6-14.9,82.4-14.2,124.8-16.8c42.6-2.6,84.4-7.4,127.1-7.2c53.4,0.2,107.3-2.1,160.6,0.9c51.1,2.9,101.4,8.4,152.1,15.2
		c52.5,7,106,17.9,158.9,20"/>
	<g>
		<g>
			<g class="st2">
				<g class="st2">
					<path class="st3" d="M450.7,480.5c-1.7,0.5-3.4,1.1-5.2,1.7c2.7,3.7,5.1,8,6.9,13.1c-0.5,4.5,3.3,4.3,9.5,2
						c6.2-2.3,14.7-6.8,23.6-10.7c-2.1-4.3-5.5-7.4-11-8.7C468.9,476.7,461.2,477.2,450.7,480.5z"/>
					<path class="st4" d="M330.1,447.1c-0.1,2.2-0.4,4.2-0.7,6.3c0.3,0.2,0.7,0.5,1,0.8C330.4,451.8,330.4,449.4,330.1,447.1z"/>
					<path class="st3" d="M385.6,494.3c4.9-2.7,8.3-6,11.5-9.4c3.1-3.4,5.8-6.7,8.8-9.8c0.6-0.6,1.2-1.2,1.8-1.7
						c0.6-0.5,1.1-1.1,1.7-1.6c-1.1-0.1-2.1-0.2-3.2-0.3c-1.1-0.1-2.2-0.2-3.2-0.4c-5-0.6-9.7-1.7-14.1-3.7
						c-3.6-1.2-7.6-1.9-11.8-2.1c-3.8-0.1-7.9-0.2-12.4-0.3c-1.9,3.9-4.5,8.8-7.3,10.3c1.4,0.3,2.1,0.5,2.6,0.2
						c0.5-0.3,0.8-1.1,1.4-2.6c-0.3,0.8-0.7,1.7-1.1,2.7c-0.4,0.9-0.6,1.9-1.1,2.8c-0.5,1-0.9,1.8-1.2,2.5c-0.3,0.6-0.5,1-0.5,1
						c1.2,1.1,2.9,1.6,4.8,1.5c1,0,2-0.1,3-0.3c1-0.1,2.1-0.6,3.2-1c2.3-0.9,4.7-2.4,7.1-4.2c1.2-0.9,2.4-1.9,3.5-2.9
						c0.5-0.5,1.1-1,1.7-1.6c0.6-0.6,1.2-1.1,1.7-1.7c-0.5,0.9-1,1.8-1.5,2.7c-0.5,0.9-0.9,1.8-1.4,2.7c-0.5,0.9-0.9,1.9-1.3,2.8
						c-0.4,0.9-0.9,1.9-1.3,2.8c-1.7,3.8-3.4,7.4-4.9,10.5c2.6,0.6,5.3,1,8.2,1.1c2.5-1.2,5-2.7,7.1-4.3L385.6,494.3z"/>
					<path class="st3" d="M546.7,524.7c-1-0.4-2.1-0.8-3.1-1.2c-1.7,3.7-3.7,7.2-5.6,10.6c3.3,1.4,6.6,2.7,9.9,4.1
						c0.5-0.9,1.1-1.8,1.7-2.8c0.6-0.9,1.3-1.9,2-2.8c0.6,0.9,1.3,1.8,1.9,2.7c0.3,1.5,0.4,3-0.6,4.9c0.1,0,0.3,0.1,0.4,0.1
						c2,0.8,3.9,1.5,6,2.2c-1-1.2-2-2.3-2.9-3.5c4.8-1,11.1,0.3,10.3-5.5C563.6,529,554.5,527.5,546.7,524.7z"/>
					<path class="st5" d="M628.3,514.3c-1.4-5.7-2.3-11.5-2.2-17.6c-0.6,0.5-1.2,0.8-1.9,1c-0.7,0.2-1.3,0.2-2,0.2
						c-1.4-0.1-3-0.5-4.4-0.9c-0.7-0.2-1.5-0.4-2.2-0.6c-0.7-0.2-1.4-0.3-2.1-0.3c-1.3,0-2.4,0.3-3.2,1.4c-0.5-3.8-1.4-7.3-2.7-10.4
						c-1.3-3.1-3.1-5.8-5.2-8.2c-1.1-1.2-2.2-2.4-3.5-3.4c-1.2-1-2.5-2-3.9-2.9c-0.7-0.5-1.4-0.9-2.1-1.3l-0.6-0.3l-0.8-0.2
						c-0.5-0.1-1.1-0.3-1.7-0.4c-2.2-0.5-4.5-1-6.8-1.4c-9.1-1.8-18.4-3.2-26.4-5c-8-1.8-14.8-4-19.1-7.4
						c-10.3-6.4-23.1-8.7-36.1-9.3c-3.3-0.2-6.6-0.2-9.9-0.3c-3.3,0-6.6,0-9.8,0c-6.5,0-13,0-19.2-0.6c-1,2.2-0.7,4.3-0.9,6.5
						c-0.2,2.2-1,4.3-4.3,6.9c6,0.6,11.1-1.4,15.6-6c0.8-0.9,1.7-1.8,2.5-2.8c-0.8,1-1.6,2-2.5,2.8c-3.2,3.4-6.9,5.9-11.3,9.1
						c1.8-0.6,3.4-0.3,3.9,1.5c-0.2,1.5-0.9,2.6-1.8,3.5c11.2,1,21.8,3,30.6,7.3c8.8,4.2,15.8,10.7,20.7,19.9c1.5-0.1,3-0.3,4.4-0.4
						c9.1-0.7,16,0.4,20.8,2.8c4.9,2.4,7.6,6.1,9,10.6c5.4-1.3,11.4-2.5,17.3-3.4c6-0.9,11.9-1.4,17.1-1.2c4.4,0.6,8.8,1.3,13.4,2
						c2.3,0.4,4.6,0.8,6.8,1.2l0.9,0.2l0.4,0.1l0.2,0c0.1,0,0.1,0.1,0.1,0.1l0.8,0.7c0.6,0.4,1.1,0.9,1.7,1.3
						c2.1,1.7,4.3,3.7,6.4,5.7l3.2,3.1c1,1,2.1,2.1,3.1,3.1c0.8-1.3,1.6-2.7,2.5-4.1c0.9-1.4,1.9-2.9,2.7-4.5
						C626.7,512.9,627.5,513.6,628.3,514.3z"/>
					<path class="st6" d="M1292.4,397.7c-0.9-8.1-4.1-16.4-8.9-24.6c-2.4-4.1-5.2-8.1-8.4-12c-3.2-4-6.6-7.7-10.4-11.4
						c-15.2-14.5-35.2-26.3-58.8-30.1c-12-3-24.3-6-37.1-9.1c-3.2-0.7-6.5-1.5-9.7-2.2c-3.2-0.8-6.6-1.5-9.9-2.2
						c-3.3-0.7-6.5-1.4-9.8-2.1c-3.2-0.7-6.4-1.4-9.7-2.1c-25.9-5.4-52.5-10.5-80.4-14.7c6.7,14.7-1,30.3-25.6,37.8
						c-6.3,1.9-14.7-0.4-22.2-2.6c-7.5-2.2-14.3-4.1-17-1.5c-15.1,4.9-24.4,10.7-34.3,16.1c-9.9,5.4-20.3,10.2-37.2,13.7
						c5.8,4.5,6.5,14.4,13.4,15c9.2,4.8,19.6,8.3,31.1,9.5c11.6,1.1,24.4-0.1,38.6-4.8c4.1-1.4,9.9,2.6,12.2,7.2
						c2.4,4.6,1.3,9.9-8.1,11.4c22.8,5.7,39,0.7,56.5,2c12.5,0.4,19.5,2.5,23.4,5.6c3.8,3.1,4.4,7.2,3.9,11.9
						c-1.1,9.3-6.6,20.7,0.3,30.2c2,4.9,5.3,8.6,9.4,11.3c8.8-2.3,17.5-4.9,26.2-7.7c2.2-0.7,4.3-1.4,6.5-2.1
						c2.1-0.7,4.3-1.4,6.4-2.1c4.3-1.4,8.6-2.8,12.8-4.2c17.2-5.5,34.7-10.8,52.4-15.1c8.3-2,18.4,8.5,26.8,6.3
						c15.1-0.6,33.1-4,46.6-9.2c3.4-1.3,6.5-2.7,9.2-4.2c2.7-1.5,5.1-3,6.9-4.6C1291.3,403.9,1293.2,400.7,1292.4,397.7z"/>
					<path class="st7" d="M832.4,286.9c8.6-4.5,18.2-7.5,28.3-9.7c-3.8-1.5-7.6-2.9-11.4-4.4c-3.7-1.5-7.4-2.9-11.1-4.4
						c-3.6-1.5-7.3-2.9-10.8-4.4l-5.3-2.2l-1.3-0.6c-0.5-0.2-1.1-0.4-1.7-0.5l-3.4-1.1c-5,3.2-9.9,6.4-14.4,9.7
						c3.4,0.6,6.8,1.4,9.9,2.4c3.2,1,6.2,2.2,9.1,3.7C825,278.4,828.9,282.1,832.4,286.9z"/>
					<path class="st7" d="M1050.9,451.7c5.7-14.9-7.3-17.4-16.2-31.1c-24,7.6-39.4,3.1-51.5-12.6c-1.3,3.8-10.5,0.4-14.4,1.9
						c1.2-3.8-6.9-10.8,1-13.7c-3.9,1.5-7.9,0.4-11.6-0.2c-3.7-0.7-7-1.1-9.6,1.6c-6.1-2.7-3.6-5.3-0.6-8.2c3-2.9,6.6-5.9,2.4-9.4
						c-11.2,5.2-21.7,7.1-31.1,6.7c-9.3-0.4-17.5-3-23.9-7c-12.6-7.9-17.8-21.1-9.9-31.3c6-9.4,17.9-14.3,25.3-27.5
						c3.7-6.6,11.3-7.9,20.1-7.1c8.9,0.9,19,3.8,27.7,5.8c-4.7-8.5-29.3-12.9-15.5-21.4c3.4-1.2,6.8-2.5,10.3-3.9
						c3.5-1.4,7-2.9,10.4-4.4c3.4-1.5,6.7-3.1,9.7-4.9c3-1.7,5.9-3.5,8.4-5.3c-9.6-0.1-19.6,0.6-29.4,1.5
						c-9.8,0.9-19.4,2.1-28.4,3.1c-17.9,2-33.2,3.4-42.5,0.8c-7.2-2.6-14.1-5.1-21-7.7c-10.1,2.1-19.6,5.2-28.3,9.7
						c-3.4-4.8-7.4-8.6-12-11.5c-2.9-1.4-5.9-2.7-9.1-3.7c-3.2-1-6.5-1.8-9.9-2.4c-5.3,4-9.8,8.2-12,12.6c-5.9,7.6,2.8,10.9,14.6,14
						c3,0.8,6.1,1.6,9.3,2.4c1.6,0.4,3.2,0.9,4.7,1.3c0.8,0.2,1.5,0.5,2.3,0.7c0.7,0.2,1.3,0.5,1.9,0.7c5,2,9.4,4.4,11.9,7.6
						c-2.7,0.5-5.2,1.1-7.6,1.7c-1.2,0.3-2.3,0.7-3.5,1c-1.2,0.4-2.3,0.7-3.4,1.1c-4.9,1.5-9.2,3.3-12.8,5.4c-3.6,2-6.6,4.3-9.1,6.7
						c-2.4,2.4-4.3,4.9-5.7,7.6c-5.5,10.6-2.8,22.5,5.2,32.7c5.5,6.2,11.1,11.5,17.6,16.5c6.4,5,13.9,9.6,23.1,14.3
						c9.7,2.8,23.4,3.9,35.2-1.1c-3.9,1.7-15.7,6.6-12.8,8.8c22.3,7.7,31.9,24.1,60.5,18.8c-1.1,3.8,1.7,6.1-6,9.3
						c7.7-3.3,9.2,0.4,10.8,4c1.5,3.6,3.1,7.2,10.6,4c3.5,5.3,4.6,13.3,7.3,19.8c2.7,6.5,7,11.4,16.7,10.7c2.8-0.4,5.2-0.6,7.3-0.5
						c2.2,0.1,4.1,0.4,6,0.8c1.7-0.7,3.6-1.4,5.5-2.1c1.9-0.7,3.8-1.3,5.8-1.9c3.9-1.2,7.9-2.2,12-3.1c8.3-1.7,17.1-2.8,26.5-2.9
						c13.7-0.1,26.9-1.6,39.9-3.9C1056.9,455.9,1051.5,455.1,1050.9,451.7z"/>
					<path class="st8" d="M1084.3,438.5c-6.9-9.5-1.4-20.9-0.3-30.2c0.5-4.7,0-8.8-3.9-11.9c-3.8-3.1-10.9-5.2-23.4-5.6
						c-17.5-1.4-33.7,3.6-56.5-2c9.4-1.5,10.5-6.8,8.1-11.4c-2.4-4.6-8.1-8.5-12.2-7.2c-14.2,4.7-27.1,5.9-38.6,4.8
						c-11.6-1.1-22-4.7-31.1-9.5c-6.9-0.6-7.5-10.6-13.4-15c16.9-3.5,27.3-8.3,37.2-13.7c9.9-5.3,19.2-11.2,34.3-16.1
						c2.8-2.6,9.5-0.6,17,1.5c7.6,2.1,15.9,4.5,22.2,2.6c24.6-7.5,32.3-23.1,25.6-37.8c-19.8-3-40.2-5.6-61.4-7.5
						c-1.9-0.1-4-0.1-6.1-0.1c-2.5,1.9-5.3,3.6-8.4,5.3c-3,1.7-6.3,3.3-9.7,4.9c-3.4,1.6-6.9,3-10.4,4.4c-3.5,1.4-6.9,2.7-10.3,3.9
						c-13.8,8.5,10.8,12.9,15.5,21.4c-8.7-2-18.8-5-27.7-5.8c-8.9-0.8-16.5,0.5-20.1,7.1c-7.3,13.2-19.2,18.1-25.3,27.5
						c-8,10.2-2.8,23.4,9.9,31.3c6.3,4,14.5,6.6,23.9,7c9.4,0.4,19.9-1.6,31.1-6.7c4.2,3.5,0.6,6.5-2.4,9.4c-3,2.9-5.5,5.6,0.6,8.2
						c2.5-2.7,5.9-2.3,9.6-1.6c3.7,0.7,7.7,1.7,11.6,0.2c-7.9,2.9,0.3,9.9-1,13.7c3.9-1.4,13.1,1.9,14.4-1.9
						c12.1,15.7,27.6,20.2,51.5,12.6c9,13.6,22,16.2,16.2,31.1c0.6,3.3,6,4.2,12.4,4.9c10.3-1.8,20.4-4.1,30.4-6.8
						C1089.5,447.1,1086.3,443.5,1084.3,438.5z"/>
					<path class="st9" d="M960.3,470.2c-9.8,0.7-14-4.3-16.7-10.7c-2.7-6.5-3.7-14.5-7.3-19.8c-7.6,3.1-9.1-0.4-10.6-4
						c-1.5-3.6-3.1-7.2-10.8-4c7.7-3.2,4.9-5.5,6-9.3c-28.7,5.3-38.2-11.1-60.5-18.8c-2.9-2.2,8.9-7.2,12.8-8.8
						c-11.8,5-25.5,3.9-35.2,1.1c-9.2-4.7-16.7-9.4-23.1-14.3c-6.5-5-12.1-10.3-17.6-16.5c-8-10.3-10.6-22.1-5.2-32.7
						c1.4-2.6,3.2-5.2,5.7-7.6c2.4-2.4,5.4-4.7,9.1-6.7c3.6-2.1,7.9-3.9,12.8-5.4c1.1-0.4,2.2-0.7,3.4-1.1c1.1-0.4,2.3-0.7,3.5-1
						c2.4-0.6,4.9-1.2,7.6-1.7c-2.5-3.2-6.9-5.6-11.9-7.6c-0.6-0.3-1.2-0.5-1.9-0.7c-0.8-0.2-1.5-0.5-2.3-0.7
						c-1.6-0.5-3.1-0.9-4.7-1.3c-3.2-0.8-6.3-1.7-9.3-2.4c-11.8-3.1-20.5-6.4-14.6-14c2.1-4.4,6.6-8.5,12-12.6
						c-8.3-1.4-17.2-1.8-26.2-1.3c-9,0.5-18.1,1.7-27,3.4c-17.8,3.3-34.6,8-49.1,11c-0.5,5.6,0.7,10,5.4,11.6c9.1,4.1,15,8.8,19,14
						c4,5.1,6.1,10.7,8,16.4c3.8,11.3,6.6,23.1,21.8,33.2c3.1,2,8.8,3.6,14.2,5c5.4,1.3,10.4,2.5,11.9,3.5c7.1,7.2,7,15,6.9,22.9
						c-0.1,7.9-0.1,15.7,6.6,22.9c-0.4,1.9,4.7,1.2,10.1,0.9c5.5-0.4,11.2-0.4,12.1,2.7c1.8,2.6,2.8,5.6,3.7,8.5
						c0.4,1.5,0.8,3,1.1,4.5c0.4,1.5,0.8,2.9,1.3,4.3c1.9,5.6,5.1,10.3,13.6,12c23.2,5.5,37.9,14.1,49.4,24.1
						c11.4,10,19.4,21.5,28.4,32.4c10.8-4.9,20.7-10.4,30.6-15.8c9.9-5.4,19.8-10.8,30.4-15c-1.9-0.4-3.8-0.7-6-0.8
						C965.5,469.6,963,469.7,960.3,470.2z"/>
					<path class="st10" d="M416.9,283.3c-6.4,4.1-12.6,8-18.6,11.7c-2.9,1.8-5.7,3.6-8.5,5.3c-2.7,1.7-5.4,3.4-8,5
						c1.7-0.5,3.5-1.1,5.2-1.6c1.7-0.5,3.4-1,5.1-1.5c1.7-0.5,3.4-0.9,5.1-1.3c0.8-0.2,1.7-0.4,2.5-0.6c0.9-0.2,1.7-0.4,2.5-0.6
						c3.4-0.8,6.6-1.4,9.9-2c1.6-0.3,3.2-0.6,4.8-0.8c1.6-0.2,3-0.4,4.5-0.5c11.8-1.2,21.9-0.8,30.8,0.6c17.6,3,30.5,9.8,42.1,18.1
						c1.9,1.5,7.2,0.7,13.8-0.9c6.6-1.6,14.5-3.9,21.9-5.8l2.9-0.7c1.6-0.4,3.2-0.9,4.7-1.3c1.6-0.4,3.1-0.8,4.7-1.2
						c0.8-0.2,1.6-0.4,2.3-0.5c0.8-0.1,1.5-0.3,2.3-0.4c3-0.6,6-1.1,8.9-1.5c2.9-0.3,5.6-0.5,8.2-0.6c10.4-0.3,18.4,1.6,22,6.1
						c-0.4,2-1.5,4-3.4,6c-1.8,2-4.4,4-7.4,5.9c-0.8,0.5-1.5,1-2.4,1.5c-0.8,0.5-1.7,1-2.6,1.5c-1.8,1-3.7,2-5.6,3
						c-2,1-4.1,2.1-6.2,3.1c-2.2,1-4.4,2.1-6.7,3.2c2.5-0.1,4.9,0.1,7.3,0.2c2.3,0.2,4.6,0.3,6.8,0.6c4.3,0.6,8.4,1.3,12.2,2.3
						c3.7,1,7.3,2,10.5,3.3c3.2,1.3,6.2,2.7,9,4.1c5.5,3,10.4,6.3,14.7,9.8c2.2,1.8,4.2,3.5,6.2,5.4c1.9,1.8,3.8,3.7,5.6,5.6
						c14.5,15,25.4,30.5,47,41.2c5.4,2.7,10.8,5.6,16.1,8.6c2.7,1.5,5.3,3.1,7.9,4.7c2.6,1.6,5.1,3.2,7.6,4.9
						c10,6.6,19.2,13.9,27.1,21.6c15.9,15.4,26.7,32.7,29.8,50.5c1.1,7.7,8.7,13.1,18.1,18c9.5,4.9,20.8,9.2,30,14.8l5.3-3.1
						c1.7-1,3.5-2,5.2-3l0.7-0.4c0.2-0.1,0.4-0.3,0.8-0.4l1.9-0.7l3.7-1.5c2.5-1,4.9-1.9,7.4-2.8c-6.8-4.6-14.1-9.2-17.1-13.8
						c-1.9-2.4-3.6-4.7-5-7.1c-1.4-2.4-2.5-4.9-3.2-7.4c-7.3-34-24.1-57.2-72.7-71.4c-15.9-6.1-6.7-35.4-15.8-41.4
						c-8.9-7-16.6-13.9-23.5-20.8c-7-6.9-12.9-13.8-18.8-20.8c-11.7-14-22.2-28.2-36-43.2c-0.7-0.9-1.5-1.9-2.3-2.9
						c-0.9-1-1.9-2-2.9-3c-2.1-2-4.6-4.1-7.4-6.2c-2.9-2.1-6.1-4.2-9.5-6.2c-3.6-2-7.4-4.1-11.5-6c-13.7,1-28.4,3.4-43.9,6.6
						c-1.9,0.4-3.9,0.8-5.9,1.3l-5.9,1.3c-2,0.4-4,0.9-6,1.4l-6.1,1.4l-3,0.7l-3.1,0.8l-6.2,1.6l-3.1,0.8c-0.2,0.1-0.6,0.1-0.7,0.2
						l-0.4,0.1l-0.8,0.1c-1.1,0.2-2.2,0.3-3.4,0.4c-6,2.6-11.8,4.3-17.1,5.2c-1.3,0.2-2.6,0.4-3.9,0.5c-1.3,0.1-2.5,0.2-3.7,0.3
						c-2.4,0.1-4.8,0.1-6.9-0.1c-2.2-0.2-4.3-0.5-6.3-0.9c-2-0.4-3.9-0.9-5.7-1.5c-1.8-0.6-3.5-1.3-5.2-2c-1.7-0.7-3.3-1.4-4.9-2.2
						c-3.1-1.5-6.2-3-9.3-4.3c-3.1-1.3-6.3-2.2-9.9-2.6C438.4,274.1,429.7,275.7,416.9,283.3z"/>
					<path class="st11" d="M834.8,444.8c-8.5-1.7-11.6-6.4-13.6-12c-0.5-1.4-0.9-2.9-1.3-4.3c-0.4-1.5-0.7-3-1.1-4.5
						c-0.8-3-1.9-5.9-3.7-8.5c-0.8-3.1-6.6-3-12.1-2.7c-5.5,0.4-10.6,1.1-10.1-0.9c-6.7-7.2-6.7-15.1-6.6-22.9
						c0.1-7.9,0.2-15.7-6.9-22.9c-1.5-1-6.5-2.2-11.9-3.5c-5.4-1.4-11.1-2.9-14.2-5c-15.3-10.1-18.1-21.8-21.8-33.2
						c-1.9-5.7-4-11.2-8-16.4c-4-5.1-9.9-9.9-19-14c-4.8-1.6-6-6-5.4-11.6c-0.1,0-0.2,0-0.3,0.1c1.9-5.7-1.7-8.2-6.3-9.2
						c-2.3-0.5-4.8-0.7-7-0.8c-2.2,0-4.1,0.1-5.1,0.1c-11,0.6-19.9-0.4-28.6-2c-8.7-1.6-17.3-3.9-29.9-5.5l-3.6,0
						c-1.2,0-2.5,0.1-3.7,0.1c-2.5,0.1-5,0.3-7.5,0.4c4.1,2,8,4,11.5,6c3.5,2.1,6.6,4.2,9.5,6.2c2.8,2.1,5.3,4.2,7.4,6.2
						c1.1,1,2.1,2,2.9,3c0.9,1,1.6,1.9,2.3,2.9c13.8,14.9,24.3,29.2,36,43.2c5.9,7,11.8,13.9,18.8,20.8c6.9,6.9,14.7,13.8,23.5,20.8
						c9.1,6-0.2,35.3,15.8,41.4c48.6,14.2,65.4,37.3,72.7,71.4c0.7,2.5,1.8,5,3.2,7.4c1.4,2.4,3.1,4.8,5,7.1
						c3,4.7,10.3,9.3,17.1,13.8c4.1-1.6,8.2-3.1,12.1-4.5c2-0.7,4-1.4,5.9-2c2-0.6,3.9-1.3,5.8-1.8c4-1.7,8.9-0.3,12.8,1.5
						c2,0.9,3.6,1.9,4.8,2.7c1.2,0.8,1.9,1.3,1.9,1.3c13.7-2.6,25.4-6.9,36.4-11.8c-9-10.9-17-22.4-28.4-32.4
						C872.8,458.8,858,450.3,834.8,444.8z"/>
					<path class="st12" d="M348.1,324.9c-4.4,4.9-9.2,10.2-13.5,13.8c-1.5,1.4-2.8,2.6-4,3.5c-1.2,0.9-2.2,1.5-3.2,2
						c-1.9,0.9-3.5,1.1-4.8,1c-1.4,0-2.6-0.3-3.9-0.4c-0.6,0-1.3,0-1.9,0.1l-0.2,0.1l-0.1,0c-0.1,0-0.1,0.1-0.2,0.1
						c-0.3,0.1-0.6,0.3-0.9,0.5c-0.6,0.3-1.3,0.7-2,1.2l3-0.7l0.7-0.2c0.2,0,0.3,0,0.5,0l0.9,0l-0.7,0.3l-0.2,0.1l-0.1,0l-0.2,0.1
						l-0.7,0.4l-2.6,1.6c-0.8,0.5-1.7,1.1-2.5,1.6c1.3-0.1,2.6-0.1,3.7,0c1.8,0,3.5,0,5.1,0.1c1.1,0.5,2.2,1,3.3,1.5
						c2.2,1,4.2,2.2,6.1,3.4c3.8,2.6,7,5.7,9.4,9.6c7.6-5,15.5-8.6,21.2-6.9c9.8,2.9,19.2,6.4,28.8,9.8c9.6,3.4,19.5,6.7,30.5,8.9
						c11,2.3,23.2,3.5,37.7,3.4c7.1,0,14.6-0.2,22.6-0.6c8-0.4,16.4-1.1,25.3-2.1c7.1-1,11.2,1.3,14,5.1c2.8,3.8,4.5,9.2,6.6,14.8
						c2.1,5.5,4.6,11.2,9.2,15.6c4.5,4.4,11,7.6,21.2,8c3.4,0.1,7.4-0.2,11.6-0.8c1.1-0.1,2.1-0.3,3.2-0.4l1.6-0.2
						c0.5-0.1,1.1-0.1,1.6-0.2c2-0.2,4-0.3,5.9-0.4c1.9-0.1,3.8,0.1,5.6,0.2c1.8,0.2,3.4,0.5,5,1.1c3.1,1.1,5.5,2.8,6.9,5.6
						c1.4,3.8,1.8,7.9,1.9,12.1c0.2,4.2,0.1,8.4,0.6,12.3c0.5,3.9,1.5,7.4,3.5,10.4c1,1.5,2.3,2.8,3.9,3.9c1.6,1.2,3.6,2.2,6,3
						c6,1.6,12,3.7,18,6.1c1.5,0.6,3.1,1.3,4.6,1.9c0.8,0.3,1.5,0.7,2.2,1c0.8,0.3,1.5,0.7,2.3,1c1.5,0.7,3,1.4,4.5,2.1
						c1.6,0.7,3.1,1.5,4.6,2.2c1.5,0.8,3.1,1.6,4.6,2.3c1.5,0.8,3,1.6,4.5,2.4c1.5,0.8,3.1,1.7,4.6,2.5c1.5,0.9,3,1.7,4.5,2.6
						c3.1,1.7,5.9,3.5,9,5.3c3,1.8,5.9,3.7,8.8,5.6c5.7,3.8,11.7,7.6,16.7,11.7c2.5,2,5,4,7.2,6.1c2.2,2.1,4.4,4.2,6.3,6.3
						c7.9,8.6,13.3,17.7,16,27.4c13.3,1.3,26.7-1.7,39.3-6.8c12.7-5.1,24.8-12.2,36.4-19c-9.2-5.5-20.5-9.9-30-14.8
						c-9.5-4.9-17.1-10.3-18.1-18c-3.1-17.7-13.9-35.1-29.8-50.5c-8-7.7-17.2-14.9-27.1-21.6c-2.5-1.7-5-3.3-7.6-4.9
						c-2.6-1.6-5.2-3.2-7.9-4.7c-5.3-3-10.6-5.9-16.1-8.6c-21.6-10.7-32.5-26.2-47-41.2c-1.8-1.9-3.7-3.7-5.6-5.6
						c-1.9-1.8-4-3.6-6.2-5.4c-4.3-3.6-9.1-6.8-14.7-9.8c-2.8-1.4-5.8-2.8-9-4.1c-3.2-1.3-6.7-2.3-10.5-3.3c-3.7-1-7.8-1.7-12.2-2.3
						c-2.2-0.3-4.5-0.4-6.8-0.6c-2.4-0.1-4.8-0.3-7.3-0.2c2.3-1.1,4.5-2.2,6.7-3.2c2.2-1,4.3-2.2,6.2-3.1c2-1,3.9-2,5.6-3
						c0.9-0.5,1.7-1,2.6-1.5c0.8-0.5,1.6-1,2.4-1.5c3-1.9,5.6-4,7.4-5.9c1.8-2,3-3.9,3.4-6c-3.6-4.5-11.6-6.4-22-6.1
						c-2.6,0.1-5.4,0.3-8.2,0.6c-2.9,0.4-5.9,0.9-8.9,1.5c-0.8,0.1-1.5,0.3-2.3,0.4c-0.8,0.2-1.6,0.4-2.3,0.5
						c-1.6,0.4-3.1,0.8-4.7,1.2c-1.6,0.4-3.2,0.8-4.7,1.3l-2.9,0.7c-7.4,1.9-15.3,4.2-21.9,5.8c-6.6,1.6-11.9,2.4-13.8,0.9
						c-11.7-8.3-24.5-15.1-42.1-18.1c-8.8-1.4-18.9-1.8-30.8-0.6c-1.5,0.2-3,0.3-4.5,0.5c-1.6,0.2-3.2,0.5-4.8,0.8
						c-3.3,0.6-6.5,1.3-9.9,2c-0.8,0.2-1.7,0.4-2.5,0.6c-0.8,0.2-1.7,0.4-2.5,0.6c-1.7,0.4-3.4,0.9-5.1,1.3
						c-1.7,0.5-3.4,0.9-5.1,1.5c-1.7,0.5-3.5,1.1-5.2,1.6C369.3,313.1,358.3,319.4,348.1,324.9z"/>
					<path class="st13" d="M613.5,467.3c-2.4-0.8-4.3-1.8-6-3c-1.6-1.2-2.9-2.5-3.9-3.9c-2-2.9-3.1-6.5-3.5-10.4
						c-0.5-3.9-0.5-8.1-0.6-12.3c-0.2-4.2-0.5-8.4-1.9-12.1c-1.5-2.8-3.9-4.5-6.9-5.6c-1.5-0.6-3.2-0.9-5-1.1
						c-1.8-0.2-3.7-0.3-5.6-0.2c-1.9,0.1-3.9,0.2-5.9,0.4c-0.5,0-1,0.1-1.6,0.2l-1.6,0.2c-1.1,0.1-2.1,0.3-3.2,0.4
						c-4.2,0.5-8.2,0.9-11.6,0.8c-10.1-0.5-16.6-3.6-21.2-8c-4.5-4.4-7.1-10.1-9.2-15.6c-2.1-5.5-3.7-10.9-6.6-14.8
						c-2.9-3.8-6.9-6-14-5.1c-8.9,1-17.3,1.7-25.3,2.1c-8,0.5-15.5,0.7-22.6,0.6c-14.5,0.1-26.7-1.1-37.7-3.4
						c-11-2.3-20.9-5.5-30.5-8.9c-9.6-3.4-19-7-28.8-9.8c-5.7-1.7-13.6,1.9-21.2,6.9c2.1,3.4,3.7,7.2,4.6,11.9
						c0.7,1.9,2.8,2.9,5.9,3.4c3.2,0.4,7.2,0.3,11.8-0.1c9.1-0.8,20.3-2.7,28.4-2.7c7.3,4.1,8.9,10.8,7.8,18.5
						c-1,7.8-4.6,16.7-7.8,25.3c-0.6,3.1-1.3,6.2-1.9,9.3c-0.5-0.2-0.9-0.4-1.3-0.5c-0.8,2.3-1.5,4.5-2.1,6.7c6.1,0,12.1,0,18,0.5
						c1.4-1,3.1-1.8,5.2-2.3c-0.5,0.7-1.1,1.6-1.8,2.6c8.3,0.8,16.1,2.5,22.8,5.8c5.9,3.6,12.5,5.3,19.4,6c1.9-1.5,3.9-2.9,6.3-4.1
						c-2,1.5-3.1,3-3.7,4.3c12.4,0.9,26.1-0.9,39.2-0.7c13.1,0.2,25.8,2.1,36.2,8.4c4.4,3.3,11.1,5.4,18.9,7.2
						c7.8,1.8,16.8,3.3,25.6,5.2c8.8,1.9,17.5,4.3,24.1,8.1c4.6,4.7,7.5,10.6,9,18.2c0.3-0.5,0.7-0.9,1.2-1.2
						c0.5-0.3,1.1-0.3,1.7-0.3c0.6,0,1.3,0.1,1.9,0.2c0.3,0.1,0.7,0.1,1,0.2l1.1,0.3c0.7,0.2,1.4,0.4,2.1,0.5c0.7,0.1,1.3,0.2,2,0.3
						c1.4,0.1,2.5-0.3,3.5-1.3c0.3,6.1,1.5,11.9,3,17.5c0.6,0.6,1.3,1.1,2,1.7c0.7,0.5,1.3,1.1,2,1.6c0.7,0.5,1.3,1.1,1.9,1.6
						c0.7,0.5,1.3,1.1,1.9,1.6c1.2,1.1,2.3,2.2,3.2,3.3c0.9,1.2,1.7,2.4,2.1,3.7c0,1.4-0.4,2.3-0.8,2.9c-0.5,0.5-1.1,0.7-1.8,0.7
						c-0.7,0-1.6-0.2-2.4-0.4c-0.9-0.2-1.6-0.4-2.5-0.5c0.5,1.3,1.1,2.7,1.6,4.1c0.4,0.4,0.8,0.8,1.3,1.2c1.9-0.7,3.6-2.2,5.6-4.2
						c1.7-4.7,4.3-9.2,6.3-13.4c-0.2,2.6-1,5.1-2.2,7.4c-0.6,1.1-1.3,2.2-2,3.2c-0.7,1-1.4,1.9-2.1,2.8c-0.5,1.2-0.9,2.4-1.3,3.6
						c-0.4,1.2-0.6,2.4-0.9,3.6c5.1,4.3,10.8,8.3,18.3,11.7c1.4-0.7,2.9-1.5,4.2-2.3c-1.1,0.7-2.4,1.6-3.7,2.6
						c1,0.5,2.1,0.9,3.2,1.3c0.7-0.5,1.5-1,2.5-1.5c0.9-0.6,2-1.2,3.1-1.8c1.1-0.7,2.4-1.3,3.7-2.1c1.4-0.7,2.8-1.5,4.3-2.3
						c6.3-3.2,13.8-6.7,22.4-10.4c1.4,1.8,3,3.5,4.6,5c1.6,1.6,3.2,3,4.9,4.3c3.3,2.7,6.6,4.9,10.1,6.7c3.4,1.8,6.9,3.2,10.5,4.2
						c3.5,1,7.2,1.7,10.7,2.1c-2.7-9.7-8.2-18.8-16-27.4c-2-2.1-4.1-4.2-6.3-6.3c-2.3-2.1-4.7-4.1-7.2-6.1c-5.1-4-11-7.9-16.7-11.7
						c-3-1.9-5.8-3.7-8.8-5.6c-3.1-1.8-5.9-3.6-9-5.3c-1.5-0.8-3-1.7-4.5-2.6c-1.5-0.8-3-1.7-4.6-2.5c-1.5-0.8-3-1.6-4.5-2.4
						c-1.5-0.8-3-1.5-4.6-2.3c-1.5-0.8-3-1.5-4.6-2.2c-1.5-0.7-3-1.4-4.5-2.1c-0.8-0.3-1.5-0.7-2.3-1c-0.7-0.3-1.5-0.6-2.2-1
						c-1.5-0.6-3-1.3-4.6-1.9C625.6,471,619.5,468.9,613.5,467.3z"/>
				</g>
			</g>
		</g>
	</g>
</g>
<g>
	<path class="st0" d="M623.1,192.3c116.1-0.2,226.8,59,343.2,58.4c32.5-0.2,65.1,1.1,97.6,0.3c18.5-0.4,33.9-10.3,52-12.6
		c27.3-3.4,56.6,0.6,84,0.6"/>
	<g>
		<g>
			<g class="st2">
				<g class="st2">
					<path class="st14" d="M674.4,215.7c-1-0.6-1.9-1.3-2.9-1.9c-0.5,4.5-1.4,9.3-2.9,14.5c-2.2,3.1-0.5,5.4,3,7.4
						c3.6,2.1,9.1,3.8,14.9,6.2C688.6,232.6,686.1,223.8,674.4,215.7z"/>
					<path class="st15" d="M628.6,112.3c-1.9,1.8-3.8,3.5-5.6,5.3c0.2,0.3,0.4,0.7,0.6,1.2C625.3,116.6,627,114.4,628.6,112.3z"/>
					<path class="st14" d="M640.6,184.1c2,0.8,3.9,1.1,5.6,1.2c1.7,0.1,3.4,0,5-0.3c1.6-0.3,3.1-0.7,4.6-1.1c1.5-0.4,3-0.6,4.6-0.8
						c-3-4.7-5.4-10-6.7-16.3c-0.9-3.3-2.2-6.5-3.7-9.5c-1.5-3.1-3.2-6-5.2-8.8c-3,1.5-7.2,3.3-10.9,2.7c1.9,2.3,1.9,2.3,4.6,0.8
						c-1.4,0.8-3.4,1.9-5.1,2.9c-1.7,1-3,1.8-3,1.8c1.2,6,11.8,9.8,18.8,9.3c-1.1,0.6-2.3,1.2-3.6,1.9c-1.3,0.7-2.6,1.5-3.9,2.2
						c-2.7,1.5-5.4,3.1-7.8,4.6c1.2,2.1,2.5,4.2,3.8,6.2c1.8,0.8,3.6,1.4,5.2,1.7L640.6,184.1z"/>
					<path class="st14" d="M701,307.4c-0.4-0.9-0.8-1.8-1.2-2.7c-2.7,2.3-5.6,4.1-8.5,5.8c1.3,2.9,2.7,5.8,4,8.8
						c1.4-1,3.1-1.9,4.8-2.8c-0.1,1.1-0.1,2.2-0.1,3.3c-0.5,1.4-1.2,2.8-2.6,3.8c0.1,0.1,0.1,0.2,0.2,0.3c0.8,1.7,1.6,3.3,2.4,4.9
						c0-1.5,0-3,0-4.4c1.6,0.8,3,2.2,4.4,2.7c1.4,0.6,2.6,0.3,3.6-2.4c0.2-2.7-0.8-5.5-2.2-8.3C704.4,313.6,702.6,310.6,701,307.4z"
						/>
					<path class="st16" d="M756.6,337.4c1-5.8,2.5-11.4,5-17c-1.4,0.5-2.7,0.2-3.9-0.5c-1.2-0.7-2.5-1.7-3.7-2.7
						c-2.4-2.1-4.9-4.2-7.5-3.2c3.1-7.2,3.6-13.8,2.4-20.2c-1.1-6.3-3.9-12.3-7.1-18c-6.4-11.4-14.6-21.5-16-31.5
						c-1.2-5.2-3.1-9.8-5.5-14c-2.4-4.2-5.2-8.1-8.2-11.7c-1.5-1.8-3-3.7-4.5-5.5c-1.5-1.8-3-3.6-4.5-5.4c-3-3.7-5.8-7.4-8.2-11.6
						c-2.9,2.3-3.2,7.4-8.3,7.4c2.3,4.2,5.4,5.7,9.5,4.6c0.8-0.2,1.6-0.4,2.4-0.8c-0.8,0.4-1.6,0.6-2.4,0.8c-3,0.8-5.7,0.7-9,0.4
						c1,0.7,1.6,1.8,1,3.6c-0.8,1-1.6,1.5-2.4,1.7c8.6,15.3,15.2,31.3,11.6,51.9c0.9,0.7,1.7,1.4,2.6,2.1c2.6,2.2,4.7,4.3,6.4,6.5
						c1.6,2.2,2.8,4.4,3.5,6.6c1.5,4.4,1.3,8.9,0.1,13.5c3.4,1.5,6.9,3.3,10,5.2c3.2,2,6.1,4.2,8.3,6.6c6.7,9.9,11.8,21.6,17.3,33.4
						c3.3-1.5,6.6-3,9.7-5.1C755.6,335.6,756.1,336.5,756.6,337.4z"/>
					<path class="st17" d="M1200,220.1c-0.7-8-2.8-16.2-5.7-24.1c-1.5-4-3.2-7.8-5.1-11.6c-1.9-3.7-4.2-7.3-6.6-10.6
						c-4.9-6.7-10.9-12.5-18.1-16.7c-7.2-4.2-15.9-6.8-25.6-6.9c-10-1.1-21-1.7-33.3-1.4l-0.6,0l-0.8,0.1l-1.7,0.1l-3.4,0.3
						c-2.3,0.2-4.3,0.5-6.4,0.8l-3.1,0.4l-2.9,0.5c-1.9,0.3-3.9,0.7-5.5,1l-5,1l-4.5,1l-2,0.4l-1,0.2l-0.2,0.1l-0.1,0c0,0,0,0,0,0
						l0,0c0,0-0.1,0-0.2,0l-0.3,0l-0.7,0c-3.6,0.1-7.1,0.3-10.6-0.2c-1.8-0.2-3.5-0.6-5.2-1c-1.7-0.4-3.4-0.8-5.2-1.2
						c1.1,7,1.6,14.6,0.6,21.6c-0.3,1.8-0.6,3.5-1.1,5.2c-0.7,1.7-1.7,3.3-2.7,4.8c-2.1,3.1-4.8,5.9-8.2,8.3c-7,4.8-19.5-7-22.7-1.6
						c-8.4,5.6-13.9,11.6-19.7,17.1c-5.9,5.5-12.2,10.5-22.6,13.9c3.6,4.4,4,14.4,8.2,15c11.2,9.5,25.3,13.8,42.2,2.7
						c4.8-3.2,14.5,14.1,3.1,18.3c7.1,2.1,13.1,1.5,18.6,0.3c1.4-0.3,2.7-0.6,4.1-1c1.4-0.3,2.7-0.7,4.1-1c2.7-0.6,5.3-1.1,8-1.3
						c3.8-0.5,6.9-0.4,9.4-0.1c2.5,0.3,4.4,1.1,5.9,2.1c3,2.2,4.4,6,5.3,10.6c0.8,4.6,1,10,1.9,15.2c0.9,5.2,2.4,10.1,6.3,13.7
						c1.4,2.1,3.1,3.7,4.8,5c1.8,1.3,3.7,2.2,5.7,2.7c3-2.6,5.9-5.4,8.6-8.2c1.4-1.4,2.7-2.8,4-4.2l1-1.1l0.5-0.5l0.6-0.6
						c0.1-0.1,0.2-0.2,0.3-0.3l0.1-0.2l0.3-0.5l0.5-0.9l0.5-0.9l0.4-0.9l0.9-1.8c0.6-1.2,1-2.3,1.6-3.5c0.9-2.2,1.8-4.4,2.7-6.7
						c0.5-2.1,2.8-4.4,4.5-6.5c1.9-2.1,3.9-4.3,6.1-6.3c4.2-4.1,9-7.9,13.9-11.3c2.3-1.6,5.2-0.1,8,1.4c2.8,1.5,5.6,3,8.1,1.5
						c8.9-2.3,19.8-7,28-13C1195.9,233.3,1201.1,226.2,1200,220.1z"/>
					<path class="st18" d="M931.1,155.1c2.5-1.9,4.8-3.6,7.3-4.9c1.2-0.7,2.4-1.3,3.6-1.8c1.2-0.6,2.4-1,3.6-1.5
						c-3.2-3.2-6.5-6.6-9.6-9.8c-1.6-1.7-3.1-3.4-4.7-5c-1.5-1.7-3.1-3.3-4.6-5c-2.3,2.9-4.8,5.7-7,8.6c2.5,1.7,4.9,4.1,6.8,7.3
						C928.4,146.1,930,150.1,931.1,155.1z"/>
					<path class="st18" d="M1062.6,315.5c2.4-15.4-9-16.4-16.7-29.1c-14.9,9.8-25.1,6.2-33-8.9c-0.7,3.8-6.6,0.9-9,2.5
						c0.7-3.8-4.4-10.6,0.4-13.8c-4.8,3.2-10-3.6-13.1,1.9c-7.6-5.1,6.2-10.9,1-17.6c-6.8,5.3-13.3,7.3-19,7c-2.9-0.2-5.5-0.9-8-2.2
						c-2.5-1.2-4.7-2.9-6.6-5c-3.8-4-6.2-9.5-7.1-15.1c-0.9-5.6-0.1-11.4,2.3-16.4c1.9-4.6,4.4-8.1,6.9-12.1c1.3-2,2.5-4.1,3.7-6.6
						c0.6-1.2,1.1-2.5,1.7-3.9c0.6-1.4,1.3-2.9,1.8-4.6c2.3-6.6,7-7.9,12.4-7.1c5.4,0.8,11.4,3.7,16.5,5.5
						c-2.7-8.3-17.4-12.5-9.2-21.2c8-5.1,16.6-11.7,21.9-19.6c-10.4,0.8-22.3,3.6-33.3,5.7c-2.7,0.5-5.4,1-8,1.4
						c-1.1,0.2-2.2,0.3-3.3,0.5c-0.8,0.1-1.6,0.2-2.4,0.2c-1.6,0.1-3,0.1-4.3-0.2c-1.3-0.3-2.5-0.8-3.5-1.5
						c-1.6-1.4-3.1-2.8-4.6-4.1c-1.5-1.4-3-2.9-4.5-4.3c-1.2,0.4-2.4,0.9-3.6,1.5c-1.2,0.5-2.4,1.1-3.6,1.8c-2.4,1.3-4.8,3-7.3,4.9
						c-1.2-5-2.7-9-4.6-12.1c-1.9-3.2-4.2-5.6-6.8-7.3c-2.8,3.6-5.4,7.1-7.1,11.2c-2,3.4-2.2,6.2-1.2,8.6c0.9,2.4,3,4.6,5.3,6.6
						c2.4,2,5.1,4.1,7.5,6.4c2.4,2.3,4.4,4.9,5.4,8.3c-2.9,0.6-5.6,1.6-8.1,2.9c-2.5,1.2-4.8,2.7-6.8,4.4c-4.1,3.4-7.3,7.7-9.7,12.6
						c-4.7,9.7-5.7,21.7-3,32.8c4.1,13.5,9.8,23.4,20.2,34.1c2.9,1.7,6.5,3.1,10.3,3.5c3.9,0.3,8-0.3,11.9-2.5
						c-2.5,1.5-10.4,5.8-8.8,8.1c3.4,2.2,6.3,5,9.2,7.7c2.8,2.7,5.5,5.5,8.4,7.8c2.9,2.4,6,4.2,9.7,5.2c3.9,1,7.2,1,11.6-0.3
						c-0.6,3.8,1,6.1-3.6,9.3c9.3-6.5,3.7,14.4,13,7.9c4.4,10.6,2.6,32,15.5,30.1c3.6-1,6.4-0.9,9-0.2c9.5-6.4,20-11.3,32.7-13.2
						c1.1-0.2,2.3-0.4,3.4-0.6l1.7-0.3c0.8-0.1,1.5-0.3,2.3-0.4c3-0.5,5.9-1.1,8.9-1.9c2.9-0.7,5.8-1.5,8.6-2.4
						c2.8-0.9,5.6-1.9,8.2-3.1c-2.8,0.3-5.4,0.3-7.5-0.1C1064.6,317.9,1063.1,317.1,1062.6,315.5z"/>
					<path class="st19" d="M1086.6,295.9c-3.9-3.6-5.4-8.5-6.3-13.7c-0.9-5.2-1.1-10.6-1.9-15.2c-0.8-4.6-2.2-8.4-5.3-10.6
						c-1.5-1.1-3.4-1.8-5.9-2.1c-2.5-0.4-5.5-0.4-9.4,0.1c-2.7,0.1-5.4,0.7-8,1.3c-1.3,0.3-2.7,0.7-4.1,1c-1.3,0.3-2.7,0.7-4.1,1
						c-5.5,1.2-11.5,1.8-18.6-0.3c11.4-4.2,1.7-21.4-3.1-18.3c-16.9,11.1-31.1,6.9-42.2-2.7c-4.2-0.6-4.6-10.5-8.2-15
						c10.4-3.5,16.7-8.4,22.6-13.9c5.9-5.5,11.3-11.6,19.7-17.1c3.1-5.4,15.7,6.5,22.7,1.6c3.4-2.4,6.1-5.2,8.2-8.3
						c1-1.5,2-3.2,2.7-4.8c0.5-1.7,0.8-3.4,1.1-5.2c1-7,0.5-14.6-0.6-21.6l-0.5-0.1c-0.1,0-0.1,0-0.3,0l-0.5-0.1l-2-0.2
						c-1.3-0.1-2.7-0.3-4-0.4c-2.7-0.3-5.5-0.5-8.3-0.8c-5.6-0.5-11.4-1-17.4-1.5c-1.1,0-2.2,0.1-3.3,0.2
						c-5.3,7.9-13.9,14.5-21.9,19.6c-8.2,8.6,6.4,12.8,9.2,21.2c-5.1-1.8-11.1-4.7-16.5-5.5c-5.4-0.8-10.1,0.5-12.4,7.1
						c-0.6,1.6-1.2,3.2-1.8,4.6c-0.6,1.4-1.1,2.7-1.7,3.9c-1.2,2.4-2.4,4.6-3.7,6.6c-2.5,4-5,7.5-6.9,12.1c-2.4,5-3.1,10.8-2.3,16.4
						c0.9,5.6,3.3,11.1,7.1,15.1c1.9,2,4.1,3.7,6.6,5c2.5,1.2,5.1,2,8,2.2c5.7,0.3,12.1-1.6,19-7c5.2,6.7-8.6,12.5-1,17.6
						c3.1-5.4,8.2,1.3,13.1-1.9c-4.8,3.2,0.3,9.9-0.4,13.8c2.4-1.6,8.3,1.3,9-2.5c7.9,15.1,18.1,18.7,33,8.9
						c7.6,12.8,19,13.7,16.7,29.1c0.5,1.6,2,2.4,4.1,2.8c2.1,0.4,4.7,0.4,7.5,0.1c8.4-3.6,16.1-8.8,23-14.8c-2-0.6-4-1.5-5.7-2.7
						C1089.7,299.6,1088.1,298,1086.6,295.9z"/>
					<path class="st20" d="M999.3,340.5c-12.9,1.9-11.1-19.6-15.5-30.1c-9.3,6.4-3.8-14.4-13-7.9c4.6-3.2,2.9-5.5,3.6-9.3
						c-4.4,1.3-7.7,1.3-11.6,0.3c-3.7-1-6.8-2.8-9.7-5.2c-2.9-2.4-5.5-5.1-8.4-7.8c-2.8-2.7-5.7-5.5-9.2-7.7
						c-1.6-2.4,6.2-6.7,8.8-8.1c-3.9,2.2-8,2.8-11.9,2.5c-3.9-0.4-7.4-1.8-10.3-3.5c-10.4-10.7-16-20.6-20.2-34.1
						c-2.8-11.1-1.7-23.1,3-32.8c2.3-4.9,5.6-9.1,9.7-12.6c2-1.7,4.3-3.2,6.8-4.4c2.5-1.3,5.2-2.2,8.1-2.9c-1-3.3-3-6-5.4-8.3
						c-2.4-2.3-5.1-4.4-7.5-6.4c-2.4-2-4.4-4.2-5.3-6.6c-0.9-2.4-0.7-5.2,1.2-8.6c1.7-4.1,4.4-7.6,7.1-11.2c-1.5-1-3.3-1.9-5-2.6
						c-1.8-0.7-3.6-1.1-5.6-1.5c-4-0.7-8.2-0.8-12.7-0.7c-4.4,0.2-9.2,0.5-13.8,0.8c-2.3,0.2-4.7,0.3-7,0.4
						c-2.3,0.1-4.6,0.2-6.8,0.2c-1.8,5.3-2.3,9.8-0.1,12.3c3.9,5.8,5.7,11.5,6.5,17.2c0.8,5.7,0.5,11.5,0.1,17.3
						c-0.4,5.8-1,11.7-0.7,17.8c0.3,6,1.4,12.2,4.4,18.5c1.2,2.5,4.1,5.1,6.8,7.3c2.7,2.2,5.3,4.1,5.9,5.4
						c2.6,8.1,1.1,15.7-0.5,23.4c-1.6,7.7-3.2,15.4-0.3,23.5c-0.7,1.8,2.8,1.9,6.5,2.3c3.7,0.3,7.6,0.9,7.8,4c1.7,5.6,1.4,12,2,17.8
						c0.6,5.7,2.1,10.6,7.6,13c7.5,3.6,13.8,7.8,19.2,12.3c2.7,2.3,5.2,4.7,7.6,7.1c2.4,2.4,4.6,5,6.6,7.6c2.1,2.6,4,5.3,5.9,8
						c1.9,2.7,3.7,5.5,5.6,8.2c1.8,2.8,3.6,5.6,5.5,8.4l1.4,2.1c0.5,0.7,0.8,1.4,1.1,2.1c0.6,1.4,1.3,2.7,1.9,4.1
						c12.5-9.7,24.5-22.3,38.8-31.9C1005.7,339.6,1002.9,339.4,999.3,340.5z"/>
					<path class="st21" d="M744.3,37.2c-3.6,0.2-7.3,0.2-10.7,0c-3.4-0.2-6.7-0.5-10-0.9c3.6,2.2,6.6,4.6,9.5,6.9
						c2.8,2.4,5.5,4.8,7.8,7.3c4.6,5,8.4,10.2,11.3,15.7c2.9,5.5,5.3,11.1,7.1,17c1.8,5.9,3.1,12,4.2,18.3c0.1,1.1,0.9,2.1,2.2,3
						c1.2,0.9,3,1.8,5,2.6c2,0.8,4.4,1.7,6.8,2.6c2.4,0.9,5,1.8,7.6,2.9c2.6,1,5.1,2.2,7.5,3.4c2.4,1.3,4.6,2.7,6.4,4.3
						c3.7,3.2,6.1,7.3,6.1,12.6c-3.2,7.1-11.5,10-21.1,10.3c14,16.3,17.8,34.4,20.8,52c3,17.7,5,34.9,14.7,49.5
						c9.7,14.5,18,32,23.6,50.2c5.6,18.2,8.5,37.3,6.3,55.1c-0.6,3.8,0.1,7.5,1.8,11c1.7,3.5,4.2,7,7.4,10.3c1.6,1.7,3.3,3.3,5.2,5
						c1.8,1.7,3.8,3.4,5.8,5c2,1.7,4.1,3.4,6.2,5.1c2.1,1.7,4.2,3.5,6.2,5.2c3.9-1.5,7.7-3,11.6-4.5c3.9-1.5,7.8-3,11.6-4.4
						c-2.3-2.6-4.5-5.1-6.5-7.7c-1-1.3-1.9-2.6-2.8-3.8c-0.9-1.3-1.7-2.6-2.4-3.9c-2.9-5.2-4.8-10.3-5.2-15.5
						c-0.7-34.8-9.5-59.3-34.8-83.2c-4-4.6-2.6-13.5-0.7-22.2c1.9-8.7,4.2-17.2,2.4-21c-6.4-17.1-10.2-32.9-13.1-48.6
						c-2.9-15.7-4.9-31.4-7.5-48.3c-0.3-4.1-1.2-8.9-2.6-14c-1.4-5.1-3.2-10.6-5.4-16.2c-11.7-4.2-24.3-6.3-36.1-13.7
						c-2.4-0.4-4.6-0.9-6.5-1.5c-2-0.6-3.8-1.4-5.4-2.2c-3.2-1.7-5.7-3.8-7.7-6.1c-4-4.7-5.9-10.3-7.5-15.9
						c-1.6-5.5-2.8-10.9-5.3-14.9c-1.3-2-2.9-3.7-5.2-4.9C750.7,37.9,747.9,37.2,744.3,37.2z"/>
					<path class="st22" d="M914.7,312.1c-5.5-2.4-7-7.3-7.6-13c-0.6-5.7-0.3-12.2-2-17.8c-0.2-3.1-4.1-3.7-7.8-4
						c-3.7-0.3-7.2-0.4-6.5-2.3c-3-8.1-1.3-15.8,0.3-23.5c1.6-7.7,3.1-15.4,0.5-23.4c-0.6-1.3-3.2-3.2-5.9-5.4
						c-2.7-2.2-5.5-4.8-6.8-7.3c-3-6.3-4.2-12.4-4.4-18.5c-0.3-6,0.3-11.9,0.7-17.8c0.4-5.8,0.7-11.6-0.1-17.3
						c-0.8-5.8-2.7-11.5-6.5-17.2c-2.2-2.5-1.7-7,0.1-12.3c0,0-0.1,0-0.2,0c5.1-10.1-5.3-12.6-8-13.3c-13.4-3.3-17.6-10.1-27.5-18.3
						c-2.1-1-4.2-1.8-6.4-2.6c2.1,5.6,4,11,5.4,16.2c1.4,5.1,2.3,9.9,2.6,14c2.6,17,4.6,32.6,7.5,48.3c2.9,15.7,6.7,31.5,13.1,48.6
						c1.8,3.8-0.5,12.3-2.4,21c-1.9,8.7-3.3,17.6,0.7,22.2c25.3,23.9,34.2,48.5,34.8,83.2c0.3,5.2,2.2,10.4,5.2,15.5
						c0.7,1.3,1.5,2.6,2.4,3.9c0.9,1.3,1.8,2.6,2.8,3.8c2,2.6,4.2,5.1,6.5,7.7c3.2-1.2,6.4-2.4,9.6-3.5c3.2-1.1,6.3-2.1,9.3-2.9
						c3.3-1.4,7,0.3,10,2.3c3,2,5.2,4.4,5.2,4.4c2.9-0.5,5.7-1.1,8.4-1.8c1.4-0.4,2.7-0.7,4-1.1c1.3-0.4,2.7-0.9,4-1.3
						c2.6-0.9,5.2-2,7.6-3.1c1.2-0.5,2.5-1.1,3.6-1.7c0.8-0.6,1.6-1.2,2.4-1.8c-0.7-1.4-1.3-2.8-1.9-4.1c-0.3-0.7-0.6-1.4-1.1-2.1
						l-1.4-2.1c-1.8-2.8-3.6-5.5-5.5-8.4c-1.8-2.8-3.6-5.5-5.6-8.2c-1.9-2.7-3.8-5.4-5.9-8c-2.1-2.6-4.3-5.2-6.6-7.6
						c-2.4-2.4-4.8-4.9-7.6-7.1C928.5,319.9,922.3,315.7,914.7,312.1z"/>
					<path class="st23" d="M700.9,31.2c-4.3,1-9.5,2.1-13.7,2.1c-3,0.3-5.3,0.1-6.9-0.4c-1.6-0.5-2.6-1.4-3.5-2.3
						c-1.6-1.8-2.4-4-5.3-4.6l2.2,2.4c-1.3-0.4-2.5-0.7-3.8-1c4.9,9.3,7.5,18.7,6,28.7c1.8,0.2,3.4,0.6,5,1c1.6,0.4,3,1,4.2,1.6
						c2.5,1.3,4.4,3.1,5.4,5.6c3.4,8.4,5.9,17,8.5,25.6c1.3,4.3,2.6,8.6,4.1,12.8c1.4,4.3,2.9,8.5,4.6,12.7
						c6.9,16.6,16.9,32.1,35.2,45.2c7.4,4.9,4.2,15.2,1.7,26.8c-2.6,11.6-4.5,24.4,4.8,34.4c6.2,6.7,20.4,10.5,19.5,22.8
						c-2.5,15.9-18,30.5-6,44c15.5,15.3,29.1,33.4,38.7,52.5c2.4,4.8,4.5,9.6,6.4,14.5c1.9,4.9,3.4,9.8,4.6,14.8
						c2.3,9.9,3.4,19.9,2.6,29.8c2.1,1.1,4.2,1.9,6.5,2.5c2.3,0.6,4.8,0.9,7.3,1.1c2.5,0.2,5.1,0.2,7.8-0.1c2.7-0.2,5.5-0.6,8.4-1.1
						c1.4-0.3,2.9-0.5,4.3-0.9c1.5-0.3,3-0.7,4.5-1.1c3-0.8,6-1.6,9.1-2.6c3.1-1,6.2-2,9.4-3.1c3.1-1.1,6.2-2.2,9.4-3.5
						c-2-1.7-4.1-3.4-6.2-5.2c-2.1-1.7-4.1-3.4-6.2-5.1c-2-1.7-4-3.3-5.8-5c-1.8-1.7-3.6-3.3-5.2-5c-3.2-3.3-5.7-6.8-7.4-10.3
						c-1.6-3.5-2.3-7.2-1.8-11c2.2-17.8-0.7-36.9-6.3-55.1c-5.6-18.2-13.9-35.7-23.6-50.2c-9.7-14.6-11.7-31.8-14.7-49.5
						c-3-17.7-6.8-35.7-20.8-52c9.7-0.3,17.9-3.2,21.1-10.3c0-5.3-2.4-9.3-6.1-12.6c-1.8-1.6-4.1-3-6.4-4.3
						c-2.4-1.3-4.9-2.4-7.5-3.4c-2.6-1-5.2-2-7.6-2.9c-2.5-0.9-4.8-1.7-6.8-2.6c-2-0.8-3.7-1.7-5-2.6c-1.3-0.9-2.1-1.9-2.2-3
						c-1.1-6.3-2.4-12.4-4.2-18.3c-1.8-5.9-4.1-11.5-7.1-17c-2.9-5.5-6.7-10.7-11.3-15.7c-2.3-2.5-5-4.9-7.8-7.3
						c-2.9-2.4-5.9-4.7-9.5-6.9c-4-0.5-7.7-1.3-11.5-2.1C708.2,33.3,704.5,32.3,700.9,31.2z"/>
					<path class="st24" d="M763,288.7c-12-13.5,3.4-28.2,6-44c0.9-12.3-13.3-16.1-19.5-22.8c-9.3-10-7.4-22.9-4.8-34.4
						c2.6-11.6,5.8-21.8-1.7-26.8c-18.3-13.1-28.3-28.6-35.2-45.2c-1.7-4.2-3.2-8.4-4.6-12.7c-1.4-4.3-2.8-8.5-4.1-12.8
						c-2.6-8.6-5.1-17.3-8.5-25.6c-1-2.4-2.9-4.2-5.4-5.6c-1.3-0.7-2.7-1.2-4.2-1.6c-1.6-0.4-3.2-0.7-5-1c-0.6,3.9-1.7,7.9-3.6,12.1
						c-1.2,3.8,2.9,8.6,8,13.8c5.1,5.3,11.3,10.8,14.7,15.8c1.3,7.7-1.1,13.9-5.1,19.2c-4.1,5.3-9.9,10-15.5,14.6
						c-1.7,2-3.5,4-5.3,6c-0.1-0.5-0.3-0.9-0.4-1.2c-1.5,1.3-2.9,2.6-4.2,3.9c3.1,3.8,6,7.6,8.4,11.7c1.1,0.2,2.3,0.6,3.4,1.5
						c-0.6,0.3-1.3,0.6-2,0.9c3.4,5.9,6,12,7.4,18.8c0.9,6.4,2.9,11.8,5.6,16.7c1.5,0,3,0.1,4.6,0.6c-1.6,0-2.6,0.4-3.5,1.1
						c2.4,4.1,5.3,7.9,8.4,11.5c3,3.6,6.2,7.2,9.2,10.8c3,3.7,5.9,7.5,8.3,11.7c2.4,4.2,4.4,8.8,5.6,14c1.5,9.9,9.8,20,16.2,31.3
						c3.2,5.7,5.9,11.6,7.1,17.9c1.1,6.3,0.7,13-2.4,20.2c2.6-1,5,1.1,7.4,3.1c2.4,2.1,4.9,4.2,7.5,3.2c-2.5,5.6-4,11.3-5,17
						c0.8,1.6,1.7,3.3,2.6,4.8c0.9,1.6,1.8,3.1,2.6,4.6c1.5,3,2.6,5.8,2.4,8.5c-2.4,5.3-5.4,1-9-0.8c0,1.5,0,3,0,4.5
						c0.3,0.6,0.6,1.1,1,1.7c2.4,0.2,5-0.3,7.6-1.5c3.4-3.6,7.3-7.1,10.4-10.3c-1.1,2.4-2.6,4.5-4.4,6.2c-1.8,1.7-3.9,3.1-5.9,4.1
						c-1.8,1.9-3.5,3.8-5,5.8c3.7,6.1,8,12.1,13.1,17.4c1.4-0.3,2.8-0.6,4.1-1c-1.1,0.4-2.4,0.9-3.8,1.4c0.7,0.7,1.4,1.5,2.2,2.2
						c5.6-1.9,17-5.7,28.8-9.4c1.5,8.1,3.7,14.4,6.9,19.3c1.5,2.4,3.3,4.5,5.1,6.3c1.9,1.8,4,3.2,6.2,4.3c0.9-9.9-0.2-19.9-2.6-29.8
						c-1.2-5-2.7-9.9-4.6-14.8c-1.8-4.9-4-9.7-6.4-14.5C792.1,322.1,778.6,304,763,288.7z"/>
				</g>
			</g>
		</g>
	</g>
</g>
<text transform="matrix(1.1102 1.289260e-03 -1.161344e-03 1 572.8798 329.0118)" class="st25 st26 st27">PORTFOLIO</text>
</svg>
